<svg xmlns="http://www.w3.org/2000/svg" viewBox="0 0 224.83 270.25"><defs><style>.cls-1{fill:#ffc542;}</style></defs><g id="Layer_2" data-name="Layer 2"><g id="Layer_1-2" data-name="Layer 1"><path class="cls-1" d="M74.82,197.55c3.91-7.33,9-13.26,17-16.05,15.32-5.33,30.5,2.62,35,18.22,4.36,15.21-4.92,30.64-20.68,34.39-23.24,5.52-42.3-9.8-43.73-35.13-1.63-29,16.32-57.56,44.07-70.15,31-14.08,73.49-6.12,97.26,18.23,27.34,28,28.3,73,1.85,100.8-11.21,11.79-25.75,17.63-41.49,20.15a181.16,181.16,0,0,1-27.83,2.15c-43.65.19-87.31,0-131,0H0C5.33,266.6,10.41,263.6,15,260c5.66-4.4,8.38-10.18,8.33-17.74-.25-36-.41-72,.11-108C23.6,125.45,20,120.54,12.86,117c-1.48-.73-2.93-1.51-4.71-2.42a26.42,26.42,0,0,1,2.43-1.29c8.7-3.46,13.29-8.75,12.93-19.22-.81-23.47-.66-47-.08-70.48C23.7,12.69,18.58,6.5,9.59,2.22c-.9-.43-1.83-.81-3.81-1.67C7.88.33,9,.1,10.13.1,43,.08,75.79-.15,108.61.17c22.58.21,44.45,4,63.86,16.64a61.36,61.36,0,0,1,9.19,95.58c-2.55,2.47-4.68,3.15-8.31,2.07A124.36,124.36,0,0,0,120.73,110a14.19,14.19,0,0,0,2-.82c18.22-11.08,26.2-28.66,22.54-49.69-3.13-18-18.54-33.56-38-37.19C99,20.79,90.42,20.87,81.64,20.2v96h20.29c-11.15,6-21.39,12.94-29.62,22.44-19.26,22.25-26.57,48-19.59,76.63,5.07,20.82,20.77,31.9,40.54,37.35,33.88,9.33,66.08-9.49,73.57-42.39,6.85-30.11-8.62-48.83-29.85-56-29.67-10-57.3,7.54-61.63,38.61C75.14,194.44,75,196,74.82,197.55Z"/></g></g></svg>