<svg width="48" height="45" viewBox="0 0 48 45" fill="none" xmlns="http://www.w3.org/2000/svg">
<path d="M0.88867 42H3.96728C6.69042 42 8.29003 40.3052 8.29003 37.417V37.4043C8.29003 34.5288 6.67772 32.8403 3.96728 32.8403H0.88867V42ZM2.03125 40.9717V33.8687H3.89111C5.96679 33.8687 7.12206 35.1318 7.12206 37.417V37.4297C7.12206 39.7022 5.96679 40.9717 3.89111 40.9717H2.03125ZM10.1626 34.2813C10.5498 34.2813 10.8545 33.9702 10.8545 33.5894C10.8545 33.2022 10.5498 32.8975 10.1626 32.8975C9.78172 32.8975 9.47069 33.2022 9.47069 33.5894C9.47069 33.9702 9.78172 34.2813 10.1626 34.2813ZM9.61034 42H10.7148V35.3984H9.61034V42ZM14.1489 42.127C15.0312 42.127 15.8247 41.6509 16.2119 40.9272H16.2373V42H17.3418V37.436C17.3418 36.1157 16.3642 35.2715 14.8027 35.2715C13.2475 35.2715 12.3017 36.1475 12.2065 37.2329L12.2002 37.3027H13.2666L13.2793 37.2456C13.4062 36.6553 13.9394 36.249 14.79 36.249C15.7104 36.249 16.2373 36.7378 16.2373 37.544V38.0962L14.3457 38.2041C12.8286 38.293 11.9526 38.9976 11.9526 40.1211V40.1338C11.9526 41.3335 12.8349 42.127 14.1489 42.127ZM13.0825 40.1338V40.1211C13.0825 39.5054 13.5903 39.1118 14.4726 39.061L16.2373 38.9531V39.4927C16.2373 40.4512 15.4375 41.1685 14.3965 41.1685C13.603 41.1685 13.0825 40.7686 13.0825 40.1338ZM18.8017 42H19.9062V32.8403H18.8017V42ZM23.3276 42.127C24.2099 42.127 25.0034 41.6509 25.3906 40.9272H25.416V42H26.5205V37.436C26.5205 36.1157 25.5429 35.2715 23.9814 35.2715C22.4262 35.2715 21.4804 36.1475 21.3852 37.2329L21.3789 37.3027H22.4453L22.458 37.2456C22.5849 36.6553 23.1181 36.249 23.9687 36.249C24.8891 36.249 25.416 36.7378 25.416 37.544V38.0962L23.5244 38.2041C22.0073 38.293 21.1313 38.9976 21.1313 40.1211V40.1338C21.1313 41.3335 22.0136 42.127 23.3276 42.127ZM22.2612 40.1338V40.1211C22.2612 39.5054 22.769 39.1118 23.6513 39.061L25.416 38.9531V39.4927C25.416 40.4512 24.6162 41.1685 23.5752 41.1685C22.7817 41.1685 22.2612 40.7686 22.2612 40.1338ZM30.0688 42.127C30.2846 42.127 30.5195 42.1016 30.6591 42.0825V41.1875C30.5639 41.1938 30.437 41.2129 30.3037 41.2129C29.7133 41.2129 29.4023 41.0161 29.4023 40.3115V36.3125H30.6591V35.3984H29.4023V33.6148H28.2597V35.3984H27.2949V36.3125H28.2597V40.3179C28.2597 41.5811 28.8564 42.127 30.0688 42.127ZM32.4682 34.2813C32.8554 34.2813 33.1601 33.9702 33.1601 33.5894C33.1601 33.2022 32.8554 32.8975 32.4682 32.8975C32.0874 32.8975 31.7763 33.2022 31.7763 33.5894C31.7763 33.9702 32.0874 34.2813 32.4682 34.2813ZM31.916 42H33.0205V35.3984H31.916V42ZM37.2607 42.127C39.0825 42.127 40.3139 40.8066 40.3139 38.6992V38.6865C40.3139 36.5791 39.0761 35.2715 37.2543 35.2715C35.4326 35.2715 34.2011 36.5855 34.2011 38.6865V38.6992C34.2011 40.8003 35.4262 42.127 37.2607 42.127ZM37.267 41.1494C36.0991 41.1494 35.331 40.2544 35.331 38.6992V38.6865C35.331 37.1441 36.1054 36.249 37.2543 36.249C38.4223 36.249 39.184 37.1377 39.184 38.6865V38.6992C39.184 40.248 38.4287 41.1494 37.267 41.1494ZM41.4311 42H42.5356V38.1152C42.5356 36.9917 43.2148 36.249 44.2558 36.249C45.2714 36.249 45.7729 36.8394 45.7729 37.9121V42H46.8774V37.7153C46.8774 36.2109 46.0395 35.2715 44.5922 35.2715C43.5893 35.2715 42.9164 35.7222 42.561 36.3379H42.5356V35.3984H41.4311V42Z" fill="white"/>
<path d="M33.3125 0C34.0625 0 34.6979 0.260416 35.2187 0.781249C35.7395 1.30208 36 1.9375 36 2.6875V21.3125C36 22.0625 35.7395 22.6979 35.2187 23.2187C34.6979 23.7395 34.0625 24 33.3125 24H14.6875C13.9375 24 13.3021 23.7395 12.7812 23.2187C12.2604 22.6979 12 22.0625 12 21.3125V2.6875C12 1.9375 12.2604 1.30208 12.7812 0.781249C13.3021 0.260416 13.9375 0 14.6875 0H33.3125ZM15.3125 5.99999V7.99999H18V10.6875H20V7.99999H22.6875V5.99999H20V3.31249H18V5.99999H15.3125ZM33.3125 21.3125V2.6875L14.6875 21.3125H33.3125ZM30.6875 18.6875H24V16.6875H30.6875V18.6875Z" fill="white"/>
</svg>
