<svg width="41" height="43" viewBox="0 0 41 43" fill="none" xmlns="http://www.w3.org/2000/svg">
<path d="M0.88867 40H6.56347V38.9717H2.03125V35.8232H6.3286V34.8076H2.03125V31.8687H6.56347V30.8403H0.88867V40ZM7.90282 40H9.00731V35.874C9.00731 34.9409 9.5659 34.3252 10.4228 34.3252C10.6894 34.3252 10.9243 34.3569 11.0132 34.3887V33.3159C10.9243 33.3032 10.7593 33.2715 10.5688 33.2715C9.79442 33.2715 9.18504 33.7349 8.96922 34.4649H8.94383V33.3984H7.90282V40ZM14.333 40.127C16.1548 40.127 17.3862 38.8066 17.3862 36.6992V36.6865C17.3862 34.5791 16.1484 33.2715 14.3266 33.2715C12.5049 33.2715 11.2734 34.5855 11.2734 36.6865V36.6992C11.2734 38.8003 12.4985 40.127 14.333 40.127ZM14.3393 39.1494C13.1714 39.1494 12.4033 38.2544 12.4033 36.6992V36.6865C12.4033 35.1441 13.1777 34.249 14.3266 34.249C15.4946 34.249 16.2563 35.1377 16.2563 36.6865V36.6992C16.2563 38.248 15.501 39.1494 14.3393 39.1494ZM20.8457 40.127C22.3183 40.127 23.4101 39.3145 23.4101 38.1592V38.1528C23.4101 37.2134 22.9277 36.6865 21.5947 36.3628L20.5473 36.1089C19.8174 35.9312 19.519 35.6201 19.519 35.1694V35.1631C19.519 34.5791 20.0141 34.1919 20.8139 34.1919C21.6328 34.1919 22.1215 34.6172 22.2104 35.2583L22.2168 35.3027H23.2705L23.2641 35.2202C23.1816 34.1157 22.2612 33.2715 20.8139 33.2715C19.3857 33.2715 18.3891 34.0776 18.3891 35.2139V35.2202C18.3891 36.1724 18.9922 36.75 20.2363 37.0483L21.2837 37.3023C22.0327 37.4863 22.2802 37.7529 22.2802 38.229V38.2354C22.2802 38.832 21.747 39.2065 20.852 39.2065C19.9507 39.2065 19.4619 38.8193 19.3286 38.1592L19.3159 38.0957H18.2114L18.2177 38.1528C18.351 39.3335 19.2905 40.127 20.8457 40.127ZM25.1811 32.2813C25.5683 32.2813 25.873 31.9702 25.873 31.5894C25.873 31.2022 25.5683 30.8975 25.1811 30.8975C24.8003 30.8975 24.4892 31.2022 24.4892 31.5894C24.4892 31.9702 24.8003 32.2813 25.1811 32.2813ZM24.6289 40H25.7334V33.3984H24.6289V40ZM29.9736 40.127C31.7954 40.127 33.0268 38.8066 33.0268 36.6992V36.6865C33.0268 34.5791 31.789 33.2715 29.9672 33.2715C28.1455 33.2715 26.914 34.5855 26.914 36.6865V36.6992C26.914 38.8003 28.1391 40.127 29.9736 40.127ZM29.9799 39.1494C28.812 39.1494 28.0439 38.2544 28.0439 36.6992V36.6865C28.0439 35.1441 28.8183 34.249 29.9672 34.249C31.1352 34.249 31.8969 35.1377 31.8969 36.6865V36.6992C31.8969 38.248 31.1416 39.1494 29.9799 39.1494ZM34.144 40H35.2485V36.1152C35.2485 34.9917 35.9277 34.249 36.9687 34.249C37.9843 34.249 38.4858 34.8394 38.4858 35.9121V40H39.5903V35.7153C39.5903 34.2109 38.7524 33.2715 37.3051 33.2715C36.3022 33.2715 35.6293 33.7222 35.2739 34.3379H35.2485V33.3984H34.144V40Z" fill="white"/>
<path d="M13.3461 2.0699L6.21647 10.6562L13.3461 19.2424L10.8163 21.3123L2 10.6562L10.8163 0L13.3461 2.0699ZM12.1195 12.2661V9.04625H15.416V12.2661H12.1195ZM28.4488 9.04625V12.2661H25.2289V9.04625H28.4488ZM18.6359 12.2661V9.04625H21.9324V12.2661H18.6359ZM29.7521 0L38.5683 10.6562L29.7521 21.3123L27.2222 19.2424L34.3518 10.6562L27.2222 2.0699L29.7521 0Z" fill="white"/>
</svg>
