<svg width="60" height="44" viewBox="0 0 60 44" fill="none" xmlns="http://www.w3.org/2000/svg">
<path d="M3.88476 41.1523C5.97948 41.1523 7.26805 40.124 7.26805 38.499V38.4927C7.26805 37.0962 6.48095 36.3345 4.60204 35.9219L3.58642 35.6997C2.39306 35.4395 1.84082 34.9697 1.84082 34.2207V34.2144C1.84082 33.332 2.64062 32.7481 3.86572 32.7417C5.02734 32.7417 5.8081 33.294 5.94774 34.2271L5.96044 34.3159H7.10302L7.09667 34.2207C6.99511 32.7227 5.68749 31.688 3.89745 31.688C2.0122 31.688 0.679198 32.7417 0.67285 34.2461V34.2525C0.67285 35.5918 1.51074 36.398 3.30078 36.7915L4.3164 37.0137C5.57323 37.293 6.10009 37.7437 6.10009 38.5498V38.5562C6.10009 39.502 5.26855 40.0986 3.94824 40.0986C2.62158 40.0986 1.73291 39.5337 1.59961 38.6133L1.58691 38.5244H0.444335L0.450683 38.6133C0.56494 40.1812 1.90429 41.1523 3.88476 41.1523ZM8.43602 41H9.54051V36.8613C9.54051 35.9409 10.1753 35.249 11.0513 35.249C11.8701 35.249 12.4033 35.7759 12.4033 36.5757V41H13.5078V36.8042C13.5078 35.9028 14.1235 35.249 14.9995 35.249C15.8691 35.249 16.3706 35.7886 16.3706 36.6963V41H17.4751V36.4424C17.4751 35.1284 16.6308 34.2715 15.3232 34.2715C14.3965 34.2715 13.622 34.7476 13.2539 35.541H13.2285C12.9429 34.7349 12.2763 34.2715 11.375 34.2715C10.5244 34.2715 9.86424 34.7095 9.5659 35.3633H9.54051V34.3984H8.43602V41ZM21.6201 41.127C23.4419 41.127 24.6733 39.8066 24.6733 37.6992V37.6865C24.6733 35.5791 23.4355 34.2715 21.6137 34.2715C19.792 34.2715 18.5605 35.5855 18.5605 37.6865V37.6992C18.5605 39.8003 19.7856 41.127 21.6201 41.127ZM21.6264 40.1494C20.4585 40.1494 19.6904 39.2544 19.6904 37.6992V37.6865C19.6904 36.1441 20.4648 35.249 21.6137 35.249C22.7817 35.249 23.5434 36.1377 23.5434 37.6865V37.6992C23.5434 39.248 22.788 40.1494 21.6264 40.1494ZM28.5263 41.127C30.3481 41.127 31.5795 39.8066 31.5795 37.6992V37.6865C31.5795 35.5791 30.3417 34.2715 28.52 34.2715C26.6982 34.2715 25.4668 35.5855 25.4668 37.6865V37.6992C25.4668 39.8003 26.6919 41.127 28.5263 41.127ZM28.5327 40.1494C27.3647 40.1494 26.5966 39.2544 26.5966 37.6992V37.6865C26.5966 36.1441 27.371 35.249 28.52 35.249C29.6879 35.249 30.4497 36.1377 30.4497 37.6865V37.6992C30.4497 39.248 29.6943 40.1494 28.5327 40.1494ZM34.8422 41.127C35.058 41.127 35.2929 41.1016 35.4326 41.0825V40.1875C35.3373 40.1938 35.2104 40.2129 35.0771 40.2129C34.4868 40.2129 34.1757 40.0161 34.1757 39.3115V35.3125H35.4326V34.3984H34.1757V32.6148H33.0331V34.3984H32.0683V35.3125H33.0331V39.3179C33.0331 40.5811 33.6298 41.127 34.8422 41.127ZM36.6767 41H37.7812V37.147C37.7812 36.0234 38.4604 35.249 39.4824 35.249C40.5107 35.249 41.1201 35.9536 41.1201 37.147V41H42.2245V36.9565C42.2245 35.3569 41.266 34.2715 39.8632 34.2715C38.8793 34.2715 38.162 34.7095 37.8066 35.4522H37.7812V31.8403H36.6767V41ZM44.2494 33.2813C44.6366 33.2813 44.9413 32.9702 44.9413 32.5894C44.9413 32.2022 44.6366 31.8975 44.2494 31.8975C43.8686 31.8975 43.5575 32.2022 43.5575 32.5894C43.5575 32.9702 43.8686 33.2813 44.2494 33.2813ZM43.6972 41H44.8017V34.3984H43.6972V41ZM46.3061 41H47.4106V37.1152C47.4106 35.9917 48.0898 35.249 49.1308 35.249C50.1464 35.249 50.6479 35.8394 50.6479 36.9121V41H51.7524V36.7153C51.7524 35.2109 50.9145 34.2715 49.4672 34.2715C48.4643 34.2715 47.7914 34.7222 47.436 35.3379H47.4106V34.3984H46.3061V41ZM55.9545 43.3486C57.7445 43.3486 58.8681 42.3457 58.8681 40.8159V34.3984H57.7636V35.5156H57.7382C57.3319 34.7793 56.5956 34.2715 55.6625 34.2715C53.9867 34.2715 52.8378 35.6045 52.8378 37.6548V37.6611C52.8378 39.7241 53.974 41.0635 55.6371 41.0635C56.5829 41.0635 57.3446 40.5938 57.7382 39.8638H57.7636V40.708C57.7636 41.73 57.1034 42.3711 55.9418 42.3711C55.0404 42.3711 54.412 42.0791 54.2025 41.603L54.1772 41.5459H53.0663L53.079 41.603C53.2948 42.5806 54.3232 43.3486 55.9545 43.3486ZM55.8783 40.0859C54.704 40.0859 53.9677 39.1592 53.9677 37.6611V37.6548C53.9677 36.1885 54.704 35.249 55.8783 35.249C56.9955 35.249 57.7636 36.2012 57.7636 37.6548V37.6611C57.7636 39.1274 57.0019 40.0859 55.8783 40.0859Z" fill="white"/>
<path d="M25.8182 7.36364C25.8178 9.0819 26.2683 10.7702 27.1247 12.2598C27.9811 13.7494 29.2135 14.9882 30.6987 15.8523C32.1838 16.7165 33.8698 17.1757 35.588 17.1842C37.3063 17.1926 38.9966 16.75 40.4902 15.9005C39.8999 22.1277 34.6545 27 28.2727 27C21.4945 27 16 21.5055 16 14.7273C16 8.34545 20.8723 3.10009 27.0995 2.50977C26.257 3.98856 25.8153 5.66172 25.8182 7.36364V7.36364ZM18.4545 14.7273C18.4545 17.3312 19.489 19.8285 21.3302 21.6698C23.1715 23.511 25.6688 24.5455 28.2727 24.5455C30.0074 24.5454 31.7112 24.086 33.2109 23.214C34.7105 22.3421 35.9526 21.0887 36.8109 19.5811C36.423 19.618 36.0303 19.6364 35.6364 19.6364C28.8581 19.6364 23.3636 14.1419 23.3636 7.36364C23.3636 6.96968 23.382 6.57818 23.4189 6.18914C21.9113 7.0474 20.6579 8.28947 19.786 9.78913C18.914 11.2888 18.4546 12.9926 18.4545 14.7273V14.7273ZM35.8376 2.81168L36.8636 3.06818V4.29545L35.8376 4.55195C35.4061 4.65987 35.0121 4.88302 34.6975 5.19754C34.383 5.51206 34.1599 5.90613 34.052 6.33764L33.7955 7.36364H32.5682L32.3117 6.33764C32.2038 5.90613 31.9806 5.51206 31.6661 5.19754C31.3516 4.88302 30.9575 4.65987 30.526 4.55195L29.5 4.29545V3.06818L30.526 2.81168C30.9573 2.70357 31.3511 2.48034 31.6654 2.16583C31.9797 1.85133 32.2026 1.45736 32.3105 1.026L32.5682 0H33.7955L34.052 1.026C34.1599 1.45751 34.383 1.85158 34.6975 2.1661C35.0121 2.48062 35.4061 2.70376 35.8376 2.81168V2.81168ZM41.974 8.94805L43 9.20455V10.4318L41.974 10.6883C41.5425 10.7962 41.1484 11.0194 40.8339 11.3339C40.5194 11.6484 40.2962 12.0425 40.1883 12.474L39.9318 13.5H38.7045L38.448 12.474C38.3401 12.0425 38.117 11.6484 37.8025 11.3339C37.4879 11.0194 37.0939 10.7962 36.6624 10.6883L35.6364 10.4318V9.20455L36.6624 8.94805C37.0939 8.84013 37.4879 8.61698 37.8025 8.30246C38.117 7.98795 38.3401 7.59387 38.448 7.16236L38.7045 6.13636H39.9318L40.1883 7.16236C40.2962 7.59387 40.5194 7.98795 40.8339 8.30246C41.1484 8.61698 41.5425 8.84013 41.974 8.94805Z" fill="white"/>
</svg>
