<svg width="18" height="21" viewBox="0 0 18 21" fill="none" xmlns="http://www.w3.org/2000/svg">
<path d="M14.5215 12.9562L16.8874 9.41696C16.9836 9.27453 17.0393 9.10856 17.0483 8.93688C17.0574 8.7652 17.0195 8.59429 16.9388 8.44252C16.858 8.29074 16.7374 8.16384 16.59 8.07542C16.4426 7.98701 16.2738 7.94043 16.1019 7.94069H10.528L11.2567 1.23123C11.2694 1.02834 11.2165 0.826762 11.1057 0.656323C10.9949 0.485884 10.8322 0.355649 10.6416 0.284899C10.4434 0.212886 10.2267 0.209158 10.0262 0.274309C9.82556 0.339459 9.65248 0.469753 9.53439 0.644503L6.58184 5.01654L14.5215 12.9562ZM4.43368 8.22459L2.06786 11.7639C1.97159 11.9063 1.91593 12.0723 1.90687 12.2439C1.89782 12.4156 1.9357 12.5865 2.01645 12.7383C2.0972 12.8901 2.21777 13.017 2.36521 13.1054C2.51265 13.1938 2.6814 13.2404 2.85331 13.2401H8.42718L7.69851 19.9496C7.675 20.1602 7.72284 20.3725 7.83436 20.5527C7.94589 20.7329 8.11466 20.8704 8.31362 20.9432C8.41677 20.9807 8.52564 20.9999 8.63538 21C8.79039 21.0002 8.94308 20.9624 9.08004 20.8898C9.217 20.8172 9.33402 20.712 9.42083 20.5836L12.3734 16.1643L4.43368 8.22459ZM17.7201 17.4891L2.57888 2.34789C2.49065 2.25966 2.3859 2.18967 2.27061 2.14192C2.15533 2.09416 2.03177 2.06959 1.90699 2.06959C1.7822 2.06959 1.65864 2.09416 1.54336 2.14192C1.42808 2.18967 1.32333 2.25966 1.23509 2.34789C1.0569 2.52609 0.956787 2.76778 0.956787 3.01979C0.956787 3.27179 1.0569 3.51348 1.23509 3.69168L16.3763 18.8329C16.4643 18.9216 16.569 18.992 16.6843 19.0401C16.7996 19.0881 16.9233 19.1128 17.0482 19.1128C17.1732 19.1128 17.2968 19.0881 17.4122 19.0401C17.5275 18.992 17.6321 18.9216 17.7201 18.8329C17.8088 18.7449 17.8792 18.6403 17.9273 18.525C17.9753 18.4096 18 18.286 18 18.161C18 18.0361 17.9753 17.9124 17.9273 17.7971C17.8792 17.6818 17.8088 17.5771 17.7201 17.4891Z" fill="white"/>
</svg>
