<svg width="36" height="45" viewBox="0 0 36 45" fill="none" xmlns="http://www.w3.org/2000/svg">
<path d="M0.88867 42H1.95507V34.9224H1.99316L4.91943 42H5.88427L8.81053 34.9224H8.84862V42H9.91502V32.8403H8.59471L5.42089 40.5591H5.3828L2.20898 32.8403H0.88867V42ZM14.2568 42.127C16.0786 42.127 17.31 40.8066 17.31 38.6992V38.6865C17.31 36.5791 16.0722 35.2715 14.2505 35.2715C12.4287 35.2715 11.1972 36.5855 11.1972 38.6865V38.6992C11.1972 40.8003 12.4223 42.127 14.2568 42.127ZM14.2632 41.1494C13.0952 41.1494 12.3271 40.2544 12.3271 38.6992V38.6865C12.3271 37.1441 13.1015 36.249 14.2505 36.249C15.4184 36.249 16.1801 37.1377 16.1801 38.6865V38.6992C16.1801 40.248 15.4248 41.1494 14.2632 41.1494ZM18.4272 42H19.5317V37.874C19.5317 36.9409 20.0903 36.3252 20.9472 36.3252C21.2138 36.3252 21.4487 36.3569 21.5376 36.3887V35.3159C21.4487 35.3032 21.2837 35.2715 21.0932 35.2715C20.3188 35.2715 19.7094 35.7349 19.4936 36.4649H19.4682V35.3984H18.4272V42ZM22.4389 44.2217H23.5434V40.8955H23.5688C23.9814 41.6572 24.7495 42.127 25.6826 42.127C27.3393 42.127 28.4692 40.7876 28.4692 38.7056V38.6992C28.4692 36.6172 27.352 35.2715 25.6635 35.2715C24.7177 35.2715 23.9814 35.7476 23.5688 36.5156H23.5434V35.3984H22.4389V44.2217ZM25.4477 41.1494C24.3369 41.1494 23.5371 40.1782 23.5371 38.7056V38.6992C23.5371 37.2202 24.3305 36.249 25.4477 36.249C26.6157 36.249 27.3393 37.1821 27.3393 38.6992V38.7056C27.3393 40.21 26.6157 41.1494 25.4477 41.1494ZM29.6435 42H30.748V38.147C30.748 37.0234 31.4272 36.249 32.4492 36.249C33.4775 36.249 34.0869 36.9536 34.0869 38.147V42H35.1914V37.9565C35.1914 36.3569 34.2329 35.2715 32.83 35.2715C31.8461 35.2715 31.1289 35.7095 30.7734 36.4522H30.748V32.8403H29.6435V42Z" fill="white"/>
<path d="M6 0H13.2V2.4H22.8V0H30V7.19999H27.6V16.8H30V24H22.8V21.6H13.2V24H6V16.8H8.4V7.19999H6V0ZM22.8 7.19999V4.79999H13.2V7.19999H10.8V16.8H13.2V19.2H22.8V16.8H25.2V7.19999H22.8ZM8.4 2.4V4.79999H10.8V2.4H8.4ZM25.2 2.4V4.79999H27.6V2.4H25.2ZM8.4 19.2V21.6H10.8V19.2H8.4ZM25.2 19.2V21.6H27.6V19.2H25.2Z" fill="white"/>
</svg>
