<svg width="43" height="50" viewBox="0 0 43 50" fill="none" xmlns="http://www.w3.org/2000/svg">
<path d="M17.8075 5.82614H20.5738V18.3189C20.5738 18.4814 20.7086 18.6144 20.8733 18.6144H23.1193C23.284 18.6144 23.4187 18.4814 23.4187 18.3189V5.82614H26.1925C26.4433 5.82614 26.5818 5.54179 26.4283 5.34977L22.2358 0.113351C22.2078 0.0780407 22.172 0.0494842 22.1312 0.0298452C22.0903 0.0102063 22.0455 0 22 0C21.9545 0 21.9097 0.0102063 21.8688 0.0298452C21.828 0.0494842 21.7922 0.0780407 21.7642 0.113351L17.5717 5.34607C17.4182 5.54179 17.5567 5.82614 17.8075 5.82614V5.82614ZM35.7005 17.2111H33.4545C33.2898 17.2111 33.1551 17.344 33.1551 17.5065V23.1935H10.8449V17.5065C10.8449 17.344 10.7102 17.2111 10.5455 17.2111H8.29947C8.13476 17.2111 8 17.344 8 17.5065V24.8183C8 25.4719 8.53529 26 9.19786 26H34.8021C35.4647 26 36 25.4719 36 24.8183V17.5065C36 17.344 35.8652 17.2111 35.7005 17.2111Z" fill="white"/>
<path d="M4.88086 46.1641C7.32812 46.1641 8.79102 44.6875 8.79102 42.541V36.1357H7.56055V42.459C7.56055 43.9766 6.58984 45.0293 4.88086 45.0293C3.17188 45.0293 2.1875 43.9766 2.1875 42.459V36.1357H0.957031V42.541C0.957031 44.6875 2.43359 46.1641 4.88086 46.1641ZM10.5205 48.3926H11.71V44.8105H11.7373C12.1816 45.6309 13.0088 46.1367 14.0137 46.1367C15.7979 46.1367 17.0146 44.6943 17.0146 42.4521V42.4453C17.0146 40.2031 15.8115 38.7539 13.9932 38.7539C12.9746 38.7539 12.1816 39.2666 11.7373 40.0938H11.71V38.8906H10.5205V48.3926ZM13.7607 45.084C12.5645 45.084 11.7031 44.0381 11.7031 42.4521V42.4453C11.7031 40.8525 12.5576 39.8066 13.7607 39.8066C15.0186 39.8066 15.7979 40.8115 15.7979 42.4453V42.4521C15.7979 44.0723 15.0186 45.084 13.7607 45.084ZM18.2793 46H19.4688V36.1357H18.2793V46ZM24.0215 46.1367C25.9834 46.1367 27.3096 44.7148 27.3096 42.4453V42.4316C27.3096 40.1621 25.9766 38.7539 24.0146 38.7539C22.0527 38.7539 20.7266 40.1689 20.7266 42.4316V42.4453C20.7266 44.708 22.0459 46.1367 24.0215 46.1367ZM24.0283 45.084C22.7705 45.084 21.9434 44.1201 21.9434 42.4453V42.4316C21.9434 40.7705 22.7773 39.8066 24.0146 39.8066C25.2725 39.8066 26.0928 40.7637 26.0928 42.4316V42.4453C26.0928 44.1133 25.2793 45.084 24.0283 45.084ZM30.5908 46.1367C31.541 46.1367 32.3955 45.624 32.8125 44.8447H32.8398V46H34.0293V41.085C34.0293 39.6631 32.9766 38.7539 31.2949 38.7539C29.6201 38.7539 28.6016 39.6973 28.499 40.8662L28.4922 40.9414H29.6406L29.6543 40.8799C29.791 40.2441 30.3652 39.8066 31.2812 39.8066C32.2725 39.8066 32.8398 40.333 32.8398 41.2012V41.7959L30.8027 41.9121C29.1689 42.0078 28.2256 42.7666 28.2256 43.9766V43.9902C28.2256 45.2822 29.1758 46.1367 30.5908 46.1367ZM29.4424 43.9902V43.9766C29.4424 43.3135 29.9893 42.8896 30.9395 42.835L32.8398 42.7188V43.2998C32.8398 44.332 31.9785 45.1045 30.8574 45.1045C30.0029 45.1045 29.4424 44.6738 29.4424 43.9902ZM38.2129 46.1367C39.2314 46.1367 40.0244 45.624 40.4688 44.7969H40.4961V46H41.6855V36.1357H40.4961V40.0801H40.4688C40.0244 39.2598 39.1973 38.7539 38.1924 38.7539C36.4082 38.7539 35.1914 40.1963 35.1914 42.4385V42.4453C35.1914 44.6875 36.3945 46.1367 38.2129 46.1367ZM38.4453 45.084C37.1875 45.084 36.4082 44.0791 36.4082 42.4453V42.4385C36.4082 40.8184 37.1875 39.8066 38.4453 39.8066C39.6416 39.8066 40.5029 40.8525 40.5029 42.4385V42.4453C40.5029 44.0381 39.6484 45.084 38.4453 45.084Z" fill="white"/>
</svg>
