<svg width="21" height="22" viewBox="0 0 21 22" fill="none" xmlns="http://www.w3.org/2000/svg">
<path d="M0.815519 17.9538C1.33689 16.7188 2.09348 15.5971 3.04316 14.651C3.98995 13.7022 5.11152 12.9457 6.34592 12.4234C6.35698 12.4178 6.36803 12.4151 6.37909 12.4095C4.65723 11.1658 3.53788 9.13995 3.53788 6.85427C3.53788 3.06784 6.60572 0 10.3922 0C14.1786 0 17.2464 3.06784 17.2464 6.85427C17.2464 9.13995 16.1271 11.1658 14.4052 12.4123C14.4163 12.4178 14.4273 12.4206 14.4384 12.4261C15.6766 12.9485 16.7876 13.6975 17.7411 14.6538C18.6899 15.6006 19.4464 16.7221 19.9688 17.9565C20.482 19.165 20.7587 20.4607 20.7841 21.7734C20.7848 21.8029 20.7797 21.8322 20.7689 21.8597C20.7581 21.8871 20.7419 21.9122 20.7213 21.9333C20.7007 21.9544 20.6761 21.9712 20.6489 21.9827C20.6217 21.9941 20.5925 22 20.563 22H18.9047C18.7831 22 18.6864 21.9033 18.6836 21.7844C18.6283 19.6508 17.7715 17.6525 16.257 16.1379C14.6899 14.5709 12.6087 13.7085 10.3922 13.7085C8.17557 13.7085 6.09441 14.5709 4.52733 16.1379C3.01276 17.6525 2.15597 19.6508 2.1007 21.7844C2.09793 21.906 2.0012 22 1.87959 22H0.221298C0.191792 22 0.16258 21.9941 0.135389 21.9827C0.108196 21.9712 0.0835724 21.9544 0.0629673 21.9333C0.0423603 21.9122 0.0261917 21.8871 0.0154114 21.8597C0.00463104 21.8322 -0.000543594 21.8029 0.000192642 21.7734C0.027832 20.4523 0.301449 19.1671 0.815519 17.9538ZM10.3922 11.608C11.6607 11.608 12.8547 11.1133 13.753 10.2151C14.6512 9.31683 15.1459 8.12286 15.1459 6.85427C15.1459 5.58568 14.6512 4.39171 13.753 3.49347C12.8547 2.59523 11.6607 2.1005 10.3922 2.1005C9.12356 2.1005 7.92959 2.59523 7.03135 3.49347C6.13311 4.39171 5.63838 5.58568 5.63838 6.85427C5.63838 8.12286 6.13311 9.31683 7.03135 10.2151C7.92959 11.1133 9.12356 11.608 10.3922 11.608Z" fill="#FFC542"/>
</svg>
