<svg width="300" height="271" viewBox="0 0 300 271" fill="none" xmlns="http://www.w3.org/2000/svg">
<path d="M231.657 240.093L245.119 182.025L241.986 182.055L229.706 239.673L231.657 240.093Z" fill="#FFBA57"/>
<path d="M231.717 230.238L229.706 239.667L231.657 240.087L234.472 227.933C233.71 228.871 232.774 229.653 231.717 230.238Z" fill="#F9A541"/>
<path d="M242.574 184.479C251.061 186.598 252.934 174.12 252.934 174.12L237.167 169.919C237.167 169.919 233.77 182.283 242.574 184.479ZM248.54 174.984C248.54 174.984 247.34 182.595 242.713 181.352C238.931 180.344 239.327 172.524 239.327 172.524L248.54 174.984Z" fill="#8E4242"/>
<path d="M233.313 239.157L233.199 235.676L230.252 234.728L228.638 238.677L233.313 239.157Z" fill="#6B6B57"/>
<path d="M242.688 241.558C242.346 241.444 218.681 235.85 218.681 235.85C218.681 235.85 209.99 264.221 224.989 267.804C237.209 270.733 242.688 241.558 242.688 241.558Z" fill="#C9C9B8"/>
<path d="M226.579 241.96C232.545 243.725 237.299 247.392 239.946 251.719C241.074 248.393 241.99 245 242.689 241.558C242.346 241.444 218.681 235.85 218.681 235.85C218.681 235.85 218.051 237.915 217.42 241C220.507 240.746 223.613 241.072 226.579 241.96Z" fill="#B9BAA8"/>
<path d="M232.317 239.313C231.993 241.606 228.956 251.197 227.684 251.029C226.411 250.861 228.782 238.683 228.782 238.683L232.317 239.313Z" fill="#9D9E90"/>
<path d="M224.971 267.804C237.209 270.733 242.689 241.558 242.689 241.558L242.136 241.42C240.888 247.008 235.372 268.561 225.229 266.166C212.751 263.225 217.768 241.402 219.227 235.982L218.669 235.85C218.669 235.85 209.972 264.221 224.971 267.804Z" fill="#E4E5CA"/>
<path d="M217.432 236.426L243.085 242.404L243.427 241.156L217.774 235.178L217.432 236.426Z" fill="#868772"/>
<path d="M243.163 183.633C235.864 181.833 236.897 173.184 237.461 170.291L237.077 170.219C237.077 170.219 233.764 182.301 242.562 184.503C246.422 185.47 248.895 183.477 250.443 181.016C248.889 183.033 246.566 184.485 243.163 183.633Z" fill="#773131"/>
<path d="M249.081 174.378L239.279 171.737C239.279 171.737 239.279 172.133 239.279 172.746L248.48 175.23C248.24 176.644 247.765 178.007 247.076 179.264C248.606 177.421 249.081 174.378 249.081 174.378Z" fill="#773131"/>
<path d="M31.5522 221.445C27.873 218.714 21.3489 218.444 15.8271 222.562C11.6557 225.641 12.3219 229.584 13.0302 230.868C16.0972 236.39 28.4852 234.626 32.1944 232.453C37.098 229.596 34.8112 223.87 31.5522 221.445ZM24.836 233.065C20.1845 233.065 16.4333 230.772 16.5293 227.939C16.6253 225.107 20.4246 222.82 25.0761 222.82C29.7276 222.82 33.0106 225.311 32.9326 228.138C32.8546 230.964 29.4935 233.065 24.836 233.065Z" fill="#DDB58E"/>
<path d="M30.6099 223.726C27.5729 221.553 21.649 221.655 16.6614 224.692C13.0182 226.907 14.3206 229.662 14.9028 230.694C16.5354 233.563 21.505 233.959 25.5863 233.413C25.1962 233.443 24.8 233.461 24.3859 233.461C19.7284 233.461 15.9832 231.169 16.0732 228.342C16.1632 225.515 19.9685 223.222 24.626 223.222C29.2835 223.222 33.0287 225.515 32.9327 228.342C32.8846 230.316 31 232.033 28.2812 232.885C29.1514 232.678 29.9937 232.368 30.79 231.961C34.9073 229.668 33.3108 225.653 30.6099 223.726Z" fill="#C48E66"/>
<path d="M27.1168 223.156C21.0608 222.334 16.3853 225.791 15.599 222.736C11.6858 225.791 12.334 229.608 13.0302 230.868C16.0972 236.39 28.4852 234.626 32.1944 232.453C33.3996 231.811 34.3204 230.74 34.7752 229.452C32.9086 229.884 33.7369 224.05 27.1168 223.156ZM24.4999 232.969C20.1425 232.969 16.6554 230.778 16.6974 228.072C16.7394 225.365 20.3406 223.18 24.704 223.18C29.0674 223.18 32.5425 225.371 32.5065 228.072C32.4705 230.772 28.8573 232.969 24.4999 232.969Z" fill="#C48E66"/>
<path d="M38.4785 245.705C38.4785 245.705 38.4064 242.74 37.5242 241.972C36.9862 241.517 36.2948 241.285 35.5915 241.324C35.5915 241.324 36.6119 238.419 32.5906 236.744C32.6296 236.227 32.5341 235.709 32.3132 235.24C32.0923 234.771 31.7536 234.367 31.3301 234.067C31.3301 234.067 30.1898 232.465 29.7336 231.715C28.761 232.284 27.6828 232.649 26.5646 232.789C25.9644 233.173 23.7077 236.054 23.1495 238.575C23.1495 238.575 21.589 238.491 21.4329 239.367C21.4043 239.652 21.4438 239.939 21.5482 240.205C21.6525 240.471 21.8188 240.709 22.0331 240.898C22.0331 240.898 22.9154 247.398 29.4876 248.358L29.6616 248.88C30.3038 248.95 30.9535 248.887 31.5702 248.694L32.3985 251.335C33.5784 251.492 34.7788 251.328 35.8736 250.861C35.8736 250.861 38.3344 251.383 39.1207 249.841C39.9069 248.298 38.4785 245.705 38.4785 245.705Z" fill="#543226"/>
<path d="M33.8029 238.941C34.4511 239.295 35.0813 239.673 35.6755 240.063C35.5435 239.073 34.8893 237.705 32.5725 236.744C32.6116 236.227 32.5161 235.709 32.2952 235.24C32.0743 234.771 31.7356 234.367 31.3121 234.067C31.3121 234.067 30.1718 232.465 29.7156 231.715C28.7429 232.284 27.6648 232.649 26.5466 232.789C25.5597 233.729 24.747 234.837 24.1458 236.06C27.5414 236.277 30.8434 237.262 33.8029 238.941Z" fill="#47291F"/>
<path d="M72.8095 260.716C72.0953 261.316 74.142 264.317 74.142 265.062C74.142 265.806 73.0916 266.298 72.3414 266.298C71.5911 266.298 71.8192 265.632 69.1003 261.67C66.3815 257.709 62.7443 256.647 58.819 258.237C54.8937 259.828 54.2395 262.481 53.9094 265.776L60.1574 270.949L81.3323 270.877C76.6268 262.199 73.5238 260.098 72.8095 260.716ZM66.2074 262.517C61.952 262.805 58.2428 266.118 57.7147 266.952C57.1865 267.786 55.1158 262.817 58.5309 260.71C63.5365 257.637 66.9396 262.481 66.2254 262.529L66.2074 262.517Z" fill="#DDB58E"/>
<path d="M48.0455 263.849L48.6037 252.752L48.9758 252.842L49.354 264.881L48.0455 263.849Z" fill="#CC9C75"/>
<path d="M47.5654 263.555L46.9832 262.571L48.6037 252.752L48.8258 264.557L47.5654 263.555Z" fill="#DDB58E"/>
<path d="M40.6392 244.187C39.0126 239.619 33.6109 235.892 33.3408 235.532C33.0707 235.172 32.9807 230.73 32.8426 228.522C32.6574 226.81 31.8457 225.227 30.5637 224.078C29.2817 222.929 27.62 222.295 25.8984 222.298C21.0968 222.154 16.9555 224.368 15.7431 226.091C14.5307 227.813 16.4573 231.811 16.4573 231.811L18.2579 237.249C10.8875 243.851 13.8945 257.475 15.539 263.411L41.4134 261.646C41.4134 261.646 42.9259 250.699 40.6392 244.187ZM38.7966 249.444C38.0403 250.933 35.6695 250.435 35.6695 250.435C34.612 250.884 33.4535 251.041 32.3145 250.891L31.5162 248.34C30.9214 248.528 30.2936 248.59 29.6736 248.52L29.5056 248.022C23.1675 247.092 22.3032 240.82 22.3032 240.82C22.0921 240.64 21.9273 240.412 21.8228 240.155C21.7183 239.898 21.6773 239.619 21.703 239.343C21.8591 238.497 23.3596 238.581 23.3596 238.581C23.9598 235.778 26.9067 234.122 26.9067 234.122C27.3869 233.521 27.3028 232.117 27.1948 231.439L26.3365 230.838L25.7363 230.965L24.0918 229.812L23.8097 227.765L23.8817 227.333L24.3559 229.53L25.8684 230.592L26.6006 230.37C26.7491 230.326 26.9021 230.298 27.0568 230.286C27.1199 230.122 27.2418 229.987 27.3989 229.908C28.5212 229.266 29.5716 231.445 29.8897 232.399C30.208 233.097 30.6824 233.713 31.2761 234.2C31.6821 234.489 32.0061 234.879 32.2165 235.332C32.4269 235.784 32.5165 236.283 32.4765 236.78C36.3778 238.395 35.3935 241.192 35.3935 241.192C36.0675 241.148 36.7329 241.362 37.2541 241.792C38.1123 242.524 38.1784 245.393 38.1784 245.393C38.1784 245.393 39.5588 247.968 38.7966 249.444Z" fill="#DDB58E"/>
<path d="M37.098 259.714C37.098 259.714 30.6099 255.446 30.0097 255.446C29.4095 255.446 21.4569 255.122 16.8774 257.307L21.2829 259.648L37.098 259.714Z" fill="#CC9C75"/>
<path d="M21.9191 240.333C21.7421 240.042 21.6761 239.697 21.733 239.361C21.8651 238.647 22.9334 238.593 23.2875 238.593L23.4256 238.455C23.7871 237.211 24.4974 236.097 25.4722 235.244C24.0363 234.981 22.6779 234.398 21.4977 233.539C20.3175 232.679 19.3456 231.566 18.654 230.28C17.4536 228.066 17.3996 225.785 18.2699 224.074C17.2897 224.553 16.427 225.241 15.7431 226.091C14.5427 227.807 16.4573 231.811 16.4573 231.811L18.0658 237.176C10.6954 243.779 13.0242 258.927 15.1669 263.435L22.6873 262.925C17.4056 255.77 18.1679 246.227 21.9191 240.333Z" fill="#CC9C75"/>
<path d="M30.6099 233.563C30.8234 233.809 31.0541 234.04 31.3001 234.254C31.7062 234.543 32.0301 234.933 32.2405 235.386C32.4509 235.838 32.5405 236.337 32.5005 236.834C35.4175 238.035 39.8169 240.087 41.6895 249.192C41.5361 247.49 41.1877 245.81 40.6512 244.187C39.0126 239.619 33.6109 235.892 33.3408 235.532C33.0707 235.172 32.9807 230.73 32.8426 228.522C32.7516 227.556 32.4461 226.623 31.9484 225.791C32.6746 228.438 32.1044 231.655 30.6099 233.563Z" fill="#CC9C75"/>
<path d="M3.69723 260.452L3.52917 260.788L7.08232 266.034L10.3714 265.512C10.3714 265.512 8.32473 262.745 3.69723 260.452Z" fill="#CC9C75"/>
<path d="M3.51709 260.752L5.91787 266.838L9.25495 266.886C9.25495 266.886 7.68244 263.807 3.51709 260.752Z" fill="#BA855D"/>
<path d="M38.1903 245.471C38.1903 245.471 38.1243 242.608 37.266 241.87C36.7449 241.44 36.0794 241.226 35.4054 241.27C35.4054 241.27 36.3898 238.473 32.4885 236.858C32.5284 236.361 32.4388 235.862 32.2285 235.41C32.0181 234.957 31.6941 234.567 31.2881 234.278C30.6943 233.791 30.22 233.175 29.9017 232.477C29.5836 231.523 28.5332 229.344 27.4109 229.986C27.3087 230.039 27.2203 230.115 27.1528 230.208C28.0711 230.316 28.8693 232.009 29.1394 232.813C29.4565 233.512 29.931 234.128 30.5259 234.614C30.9319 234.903 31.2559 235.294 31.4662 235.746C31.6766 236.198 31.7662 236.697 31.7262 237.194C35.6275 238.809 34.6432 241.612 34.6432 241.612C35.317 241.569 35.982 241.784 36.5038 242.212C37.3621 242.95 37.4281 245.813 37.4281 245.813C37.4281 245.813 38.7965 248.31 38.0283 249.799C37.8951 250.04 37.7057 250.246 37.4761 250.399C37.7528 250.347 38.0147 250.234 38.2429 250.069C38.4711 249.904 38.6602 249.691 38.7965 249.444C39.5588 247.968 38.1903 245.471 38.1903 245.471Z" fill="#824A3A"/>
<path d="M23.8697 227.327L24.4699 229.434L25.9404 230.346C26.1979 230.126 26.4954 229.957 26.8166 229.848C27.2249 229.695 27.6748 229.695 28.0831 229.848L27.987 230.652C27.7895 230.489 27.5537 230.378 27.3017 230.331C27.0497 230.284 26.7899 230.302 26.5466 230.382C26.2937 230.472 26.0471 230.578 25.8083 230.7L24.3318 229.674L23.8697 227.327Z" fill="#824A3A"/>
<path d="M21.9911 240.442C21.775 239.739 22.0271 239.145 23.2995 239.097L23.3895 238.587C23.3895 238.587 22.3692 238.443 21.9311 238.917C21.3189 239.589 21.9911 240.442 21.9911 240.442Z" fill="#824A3A"/>
<path d="M22.9874 252.487L25.4242 250.057L27.0207 249.486L28.1431 248.364V247.002L27.1408 246.6L27.4469 248.22L26.8047 249.294L25.2562 249.745L22.9874 252.487Z" fill="#543226"/>
<path d="M41.2513 248.556C41.2513 248.556 41.8095 256.503 40.6511 261.424L36.5038 259.678C39.7388 257.247 40.321 253.946 41.2513 248.556Z" fill="#F2CAAA"/>
<path d="M38.5385 249.414L38.7785 251.179L40.183 252.253L40.6631 254.228L40.207 257.283L40.111 254.06L39.5648 252.391L37.6322 251.701L37.5361 250.387L38.5385 249.414Z" fill="#824A3A"/>
<path d="M37.038 250.459L37.134 252.013L39.3967 252.559L39.8049 253.994L40.207 257.163L40.375 254.042L39.9009 252.277L38.2324 251.299L37.8722 249.769L37.038 250.459Z" fill="#543226"/>
<path d="M31.006 225.065C29.4515 222.604 24.4039 221.674 20.4366 223.822C23.0774 222.832 29.1214 223.252 31.006 225.065Z" fill="#FCD5B6"/>
<path d="M25.4903 220.791C27.0206 220.862 28.5299 221.176 29.9617 221.721C30.022 221.747 30.0894 221.749 30.1514 221.728C30.2133 221.707 30.2657 221.665 30.2986 221.608C30.3316 221.552 30.343 221.485 30.3307 221.421C30.3184 221.357 30.2833 221.3 30.2318 221.259C28.9168 220.372 27.3909 219.848 25.8084 219.741C23.9519 219.514 22.0683 219.779 20.3466 220.509C20.2673 220.551 20.2056 220.62 20.1726 220.704C20.1396 220.788 20.1374 220.88 20.1665 220.965C20.1989 221.049 20.2605 221.118 20.3399 221.16C20.4193 221.202 20.5112 221.214 20.5987 221.193C22.2011 220.823 23.8489 220.687 25.4903 220.791Z" fill="#FCD5B6"/>
<path d="M80.7922 269.881C80.756 269.922 80.7134 269.956 80.6661 269.983C78.6675 271.135 73.7099 262.751 72.7616 260.65C72.0593 261.28 74.1 264.251 74.1 264.983C74.1 265.716 75.0003 269.833 74.238 269.833C73.4758 269.833 70.1447 266.538 67.6359 262.457C65.2351 258.591 62.1741 257.571 58.765 258.855C54.8038 260.35 54.1976 262.685 53.8615 265.974L60.1455 270.877L81.3263 270.805L80.7922 269.881ZM65.7873 262.367C61.5319 262.655 58.2609 265.734 57.7387 266.568C57.2165 267.402 55.2539 263.003 58.669 260.896C63.6746 257.847 66.5195 262.319 65.8053 262.367H65.7873Z" fill="#CC986D"/>
<path d="M3.00098 270.877H80.276C80.276 270.877 69.9706 269.803 69.0403 269.731C68.11 269.659 52.589 261.328 38.4304 260.218C38.4304 260.218 31.2281 255.854 30.778 255.782C30.5379 255.74 22.0031 255.782 18.2099 257.721C13.2343 260.248 11.3617 264.029 3.00098 270.877Z" fill="#FFC257"/>
<path d="M30.1718 255.776C28.1431 255.776 21.4389 256.071 18.1679 257.721C13.2343 260.248 8.3547 264.029 0 270.877H45.6148C24.824 268.873 19.1042 258.777 30.1718 255.776Z" fill="#FFA750"/>
<path d="M61.0997 265.548L69.0763 269.149L74.304 269.899L68.6502 262.961C65.912 262.937 63.2478 263.849 61.0997 265.548Z" fill="#DDB58E"/>
<path d="M31.9964 222.256C31.5282 221.83 31.1921 221.781 31.0541 221.938C30.916 222.094 31.0241 222.4 31.4922 222.826C31.9604 223.252 32.4585 223.426 32.6026 223.3C32.7466 223.174 32.4705 222.676 31.9964 222.256Z" fill="#FCD5B6"/>
<path d="M14.8128 256.209C14.5847 252.211 15.377 242.2 19.9924 236.714C18.3156 237.785 16.9073 239.227 15.876 240.928C14.8447 242.63 14.2181 244.546 14.0445 246.528C13.8162 249.775 14.0752 253.038 14.8128 256.209Z" fill="#DDB58E"/>
<path d="M41.5214 265.512C41.5214 265.512 36.5098 261.838 40.285 260.404C39.6848 260.332 39.0366 260.266 38.4184 260.218L37.7342 259.804C37.212 261.862 37.7402 263.519 41.5214 265.512Z" fill="#FFA750"/>
<path d="M3.00098 270.877H27.4769C27.4769 270.877 14.6688 268.303 12.5921 268.014C10.5154 267.726 3.00098 270.877 3.00098 270.877Z" fill="#FC903F"/>
<path d="M77.203 264.449C75.8045 262.589 74.4241 261.16 74.1 261.406C73.7759 261.652 74.7962 263.075 76.1946 264.935C77.5931 266.796 78.8175 268.537 79.1416 268.272C79.4657 268.008 78.6254 266.34 77.203 264.449Z" fill="#FCD5B6"/>
<path d="M68.4941 263.339C70.0666 263.723 71.303 266.022 71.375 266.502C71.4471 266.982 63.5725 265.079 63.9626 264.341C64.3528 263.603 67.6898 263.147 68.4941 263.339Z" fill="#FCD5B6"/>
<path d="M71.6151 267.87C71.6381 267.773 71.6363 267.672 71.6101 267.575C71.5839 267.479 71.5341 267.391 71.4651 267.318C71.177 266.988 70.4508 266.664 70.0186 267.018C69.4184 267.522 70.3067 268.165 71.0089 268.177C71.1291 268.193 71.2513 268.172 71.3595 268.117C71.4677 268.063 71.5568 267.977 71.6151 267.87Z" fill="#FCD5B6"/>
<path d="M66.2974 221.133L63.5125 221.013L62.3782 204.796L67.4378 203.728L66.2974 221.133Z" fill="#8E4F39"/>
<path d="M98.846 270.661C99.3621 271.31 43.28 270.661 43.28 270.661C43.28 270.661 71.291 218.33 74.6281 217.706C77.7911 217.112 91.2295 261.142 98.846 270.661Z" fill="#F48134"/>
<path d="M195.657 159.944L191.624 155.856L179.986 126.165L180.46 119.082L140.632 122.761L79.3757 112H72.4255V115.811L63.6446 116.904L64.3529 134.609L67.2038 135.155L63.8787 137.064L63.4045 151.499H65.5412L60.7937 152.861L61.2679 175.471L63.8787 175.741L60.0795 177.103L61.742 196.447L63.4706 196.855L68.3922 270.943L212.043 270.811L195.657 159.944Z" fill="#8E4F39"/>
<path d="M202.602 159.944L198.568 155.856L186.93 126.165L187.411 119.082L149.418 117.72L79.3757 112L80.372 116.826L71.5852 117.912L71.2971 134.609L74.148 135.155L70.8229 137.064L70.3488 151.499H72.4854L67.7379 152.861L68.2121 175.471L70.8229 175.741L67.0237 177.103L68.6862 196.447L70.3488 195.901L75.3364 270.943L218.987 270.811L202.602 159.944Z" fill="#A56950"/>
<path d="M67.8459 243.16L65.061 243.04L63.9266 226.817L68.9803 225.755L67.8459 243.16Z" fill="#8E4F39"/>
<path d="M74.6821 260.464L65.8113 258.765L65.4572 226.781L73.7338 228.324L74.6821 260.464Z" fill="#F2CA8F"/>
<path d="M72.5455 228.186L65.2471 224.71L63.6086 199.436L70.5288 197.948L72.5455 228.186Z" fill="#F2CA8F"/>
<path d="M218.051 270.691L206.407 191.892L199.589 180.596L197.278 168.946C197.278 168.946 194.073 161.816 193.893 161.216C193.713 160.616 184.452 156.72 184.452 156.72L183.383 153.245L166.854 140.263L163.649 139.735L165.606 125.84L162.761 121.549L158.307 119.917L157.923 117.936L148.512 117.6L92.754 113.05L89.1828 126.453L84.1952 135.648L85.4436 137.484L84.5493 142.61L77.251 144.41C77.251 144.41 74.5801 167.902 74.25 177.097C74.0099 183.141 70.8529 191.22 68.5602 196.045L69.4365 195.757L73.5898 258.177L80.1919 270.781L218.051 270.691Z" fill="#FFE2B0"/>
<path d="M172.592 207.077C183.797 229.158 191.618 250.957 195.999 270.841H218.969L207.325 192.042L200.525 180.722L198.208 169.072C198.208 169.072 195.003 161.924 194.829 161.312C194.655 160.7 185.388 156.817 185.388 156.817L184.32 153.341L167.76 140.389L164.555 139.861L166.512 125.967L163.661 121.675L159.213 120.043L158.829 118.062L149.448 117.726L93.6903 113.2L93.6543 113.338C120.921 129.76 150.649 163.845 172.592 207.077Z" fill="#FFE8C0"/>
<path d="M209.072 203.734L204.09 206.873L196.786 204.214L187.351 202.173L170.611 210.342L157.785 226.691L135.704 231.385L126.089 242.416L122.704 254.678H108.101L97.9517 264.077L98.1318 270.817H160.102L156.543 256.719L161.704 248.142L172.922 236.288L180.226 234.86L185.568 224.032L190.73 216.266L198.568 215.041L205.158 219.945L211.208 217.904L209.072 203.734Z" fill="#A56950"/>
<path d="M157.947 227.135L170.791 210.648L187.381 202.491L196.69 204.52L204.12 207.239L209.072 203.734L209.042 203.332L204.054 206.465L196.846 203.824L187.315 201.747L170.485 210.018L170.425 210.048L157.629 226.481L135.554 231.211L125.819 242.458L122.476 254.636H107.993L97.6396 264.293L97.8077 270.817H98.4318L98.2638 264.623L108.209 255.35H122.932L126.359 242.842L135.854 231.871L157.845 227.159L157.947 227.135Z" fill="#8E4F39"/>
<path d="M205.206 219.627L198.64 214.705L190.562 215.978L185.298 223.954L180.028 234.716L172.784 236.144L161.494 248.148L156.201 256.989L159.67 270.817H160.318L156.879 257.115L161.938 248.646L173.066 236.81L180.424 235.364L185.814 224.35L190.898 216.65L198.496 215.455L205.104 220.407L211.202 218.018L211.154 217.712L205.206 219.627Z" fill="#8E4F39"/>
<path d="M196.906 270.943H223.83L212.427 257.847C211.436 256.707 196.906 270.943 196.906 270.943Z" fill="#F2CA8F"/>
<path d="M208.183 270.943H276.245C276.245 270.943 226.747 251.737 224.863 250.681C222.978 249.625 208.183 270.943 208.183 270.943Z" fill="#F9AA53"/>
<path d="M233.157 270.205C226.555 263.663 223.68 256.677 224.401 250.723C221.286 252.073 208.195 270.943 208.195 270.943H233.95C233.674 270.697 233.409 270.451 233.157 270.205Z" fill="#FC9047"/>
<path d="M27.6089 270.817C26.7026 271.118 124.48 270.817 124.48 270.817C124.48 270.817 75.6485 246.858 69.8266 246.569C64.3228 246.299 40.8972 266.46 27.6089 270.817Z" fill="#F9AA53"/>
<path d="M93.7383 257.745L81.1342 256.065L77.8332 261.334C76.5127 261.934 74.262 259.912 74.7362 258.225L81.3383 251.683L82.9828 252.584L82.1125 254.582L91.2295 256.005L93.7383 257.745Z" fill="#FC9047"/>
<path d="M65.6072 263.171C65.9557 257.494 67.1847 251.905 69.2504 246.606C62.8463 247.56 40.4771 266.598 27.6149 270.817C27.2248 270.943 45.2666 270.961 65.8833 270.943C65.5552 268.366 65.4628 265.765 65.6072 263.171Z" fill="#FC9047"/>
<path d="M138.957 178.279C135.345 178.268 131.749 177.796 128.256 176.875C114.037 173.22 104.68 163.515 103.654 162.416L102.759 161.462L103.708 160.574C104.392 159.925 120.717 144.741 136.034 143.936C136.37 143.936 136.706 143.936 137.048 143.936C152.233 143.936 170.347 161.258 171.127 162.008L172.106 162.956L171.121 163.893C161.038 173.46 150.259 178.279 138.957 178.279ZM104.524 161.162C107.441 163.899 116.09 171.197 128.304 174.366C143.146 178.225 157.263 174.522 170.275 163.353C165.954 159.577 149.268 145.887 136.064 146.373C122.86 146.859 108.473 157.927 104.524 161.162Z" fill="#CEAC7A"/>
<path d="M140.974 173.82C135.422 173.82 130.446 168.706 129.696 162.05C129.25 158.638 130.107 155.183 132.097 152.375C132.89 151.269 133.911 150.346 135.091 149.669C136.272 148.992 137.584 148.576 138.939 148.45C144.797 147.982 150.181 153.251 150.943 160.19C151.39 163.6 150.533 167.054 148.542 169.859C147.75 170.967 146.728 171.892 145.546 172.571C144.365 173.249 143.051 173.665 141.694 173.79C141.466 173.778 141.22 173.82 140.974 173.82ZM139.707 150.869C139.521 150.869 139.323 150.869 139.107 150.869C138.064 150.968 137.054 151.29 136.146 151.813C135.238 152.336 134.453 153.047 133.843 153.9C132.241 156.165 131.551 158.951 131.911 161.702C132.547 167.374 136.868 171.695 141.514 171.305C142.561 171.207 143.575 170.884 144.486 170.359C145.397 169.834 146.185 169.119 146.796 168.262C148.396 165.996 149.086 163.211 148.728 160.46C148.146 155.022 144.155 150.839 139.707 150.839V150.869Z" fill="#CEAC7A"/>
<path d="M98.2637 244.097L90.9594 256.089L93.7382 257.745L99.6862 245.327L98.2637 244.097Z" fill="#EA783F"/>
<path d="M97.8676 249.126L99.6682 245.327L98.2458 244.127L95.0587 249.36C95.9837 249.18 96.9256 249.102 97.8676 249.126Z" fill="#C65C2C"/>
<path d="M103.708 249.156L104.536 248.07C104.536 248.07 97.0574 238.125 95.5329 238.395C94.0084 238.665 92.568 241.666 93.6363 242.596C94.7046 243.526 103.708 249.156 103.708 249.156Z" fill="#E24F3B"/>
<path d="M71.2971 134.615H64.3528L66.2554 135.468L63.8787 137.064H70.8229L83.481 134.345L71.2971 134.615Z" fill="#723828"/>
<path d="M62.8043 196.699L68.6862 196.453L70.3488 195.907L78.0072 188.687L70.5288 198.152L63.6506 199.58L62.8043 196.699Z" fill="#723828"/>
<path d="M67.0417 177.313L60.0795 177.109L62.7503 176.023L61.2679 175.477H68.2121L81.5664 173.568L67.0417 177.313Z" fill="#723828"/>
<path d="M168.018 140.587L153.109 139.603L164.615 139.405L180.094 138.685L168.018 140.587Z" fill="#8E4F39"/>
<path d="M151.753 127.305L121.587 125.468L144.875 126.081L176.193 126.537L151.753 127.305Z" fill="#8E4F39"/>
<path d="M100.286 153.66L67.0237 152.723L70.3788 150.55L98.0117 152.591L124.726 152.891L100.286 153.66Z" fill="#8E4F39"/>
<path d="M200.351 154.092L185.388 156.816L186.912 149.632L196.726 146.055L200.351 154.092Z" fill="#A56950"/>
<path d="M174.398 235.754L144.251 234.452L173.318 236.762L197.872 234.926L207.829 231.793L197.464 234.158L174.398 235.754Z" fill="#8E4F39"/>
<path d="M111.162 218.006L159.748 218.721L111.276 217.292L71.8312 218.162L71.9513 220.035L111.162 218.006Z" fill="#8E4F39"/>
<path d="M185.436 156.102L166.866 155.388L185.388 156.817L198.568 155.862L200.351 154.092L185.436 156.102Z" fill="#8E4F39"/>
<path d="M71.8432 218.162L66.1654 219.021L71.9693 220.035L73.8419 219.075L71.8432 218.162Z" fill="#723828"/>
<path d="M110.862 217.538L112.825 206.255L112.2 217.508L110.862 217.538Z" fill="#8E4F39"/>
<path d="M199.006 233.815L201.173 244.187L196.96 234.53L199.006 233.815Z" fill="#8E4F39"/>
<path d="M140.175 156.012H139.899C139.377 156.073 138.875 156.249 138.429 156.527C137.983 156.806 137.603 157.179 137.318 157.621C136.523 158.842 136.178 160.302 136.34 161.75C136.616 164.751 138.681 167.032 140.95 166.822C141.47 166.76 141.971 166.585 142.416 166.308C142.861 166.031 143.239 165.659 143.524 165.219C144.319 163.995 144.665 162.534 144.503 161.084C144.239 158.215 142.33 156.012 140.175 156.012Z" fill="#CEAC7A"/>
<path d="M88.4866 205.432L123.67 206.074L160.696 205.57C141.526 205.63 88.4866 205.432 88.4866 205.432Z" fill="#CEAC7A"/>
<path d="M160.696 205.57C164.897 205.57 167.49 205.522 167.514 205.474L160.696 205.57Z" fill="#CEAC7A"/>
<path d="M95.1427 191.934L130.326 192.57L167.352 192.066C148.182 192.138 95.1427 191.934 95.1427 191.934Z" fill="#CEAC7A"/>
<path d="M167.352 192.066C171.553 192.066 174.146 192.024 174.17 191.976L167.352 192.066Z" fill="#CEAC7A"/>
<path d="M121.137 196.393H119.919V204.226H121.137V196.393Z" fill="#CEAC7A"/>
<path d="M118.148 199.97H114.415V201.783H118.148V199.97Z" fill="#CEAC7A"/>
<path d="M118.148 197.18H114.415V198.992H118.148V197.18Z" fill="#CEAC7A"/>
<path d="M149.346 202.425V196.543H147.768V202.425H149.346Z" fill="#CEAC7A"/>
<path d="M151.783 202.419V196.537H150.205V202.419H151.783Z" fill="#CEAC7A"/>
<path d="M124.39 196.393H123.172V204.226H124.39V196.393Z" fill="#CEAC7A"/>
<path d="M125.044 196.952V195.553H122.518V196.952H125.044Z" fill="#CEAC7A"/>
<path d="M105.178 196.513H99.2662V203.38H105.178V196.513Z" fill="#CEAC7A"/>
<path d="M172.232 183.837H168.751V187.883H172.232V183.837Z" fill="#CEAC7A"/>
<path d="M179.836 196.513H173.924V203.38H179.836V196.513Z" fill="#CEAC7A"/>
<path d="M96.2051 195.505H93.8043V203.169H96.2051V195.505Z" fill="#CEAC7A"/>
<path d="M86.3619 199.682C86.3619 201.201 87.4363 202.437 88.7627 202.437C90.0891 202.437 91.1635 201.201 91.1635 199.682C91.1635 199.046 90.9106 198.435 90.4603 197.985C90.0101 197.534 89.3994 197.282 88.7627 197.282C88.126 197.282 87.5153 197.534 87.0651 197.985C86.6149 198.435 86.3619 199.046 86.3619 199.682Z" fill="#CEAC7A"/>
<path d="M108.635 201.357C108.692 201.771 108.866 202.161 109.138 202.479C109.41 202.797 109.767 203.03 110.168 203.15C110.569 203.27 110.995 203.272 111.397 203.156C111.799 203.04 112.159 202.811 112.435 202.496C112.71 202.181 112.888 201.794 112.949 201.38C113.01 200.966 112.951 200.544 112.778 200.163C112.605 199.782 112.326 199.459 111.975 199.232C111.623 199.005 111.214 198.884 110.796 198.884C110.183 198.929 109.612 199.213 109.207 199.676C108.803 200.139 108.597 200.743 108.635 201.357Z" fill="#CEAC7A"/>
<path d="M109.427 196.729C109.464 196.996 109.577 197.247 109.753 197.452C109.928 197.656 110.159 197.806 110.417 197.883C110.675 197.96 110.95 197.961 111.209 197.886C111.468 197.811 111.7 197.664 111.877 197.46C112.054 197.257 112.169 197.008 112.208 196.741C112.247 196.474 112.209 196.202 112.097 195.957C111.986 195.711 111.806 195.503 111.58 195.357C111.353 195.211 111.089 195.133 110.82 195.133C110.424 195.162 110.056 195.346 109.796 195.645C109.535 195.944 109.403 196.334 109.427 196.729Z" fill="#CEAC7A"/>
<path d="M167.418 196.393H166.2V204.226H167.418V196.393Z" fill="#CEAC7A"/>
<path d="M164.435 199.97H160.702V201.783H164.435V199.97Z" fill="#CEAC7A"/>
<path d="M164.435 197.18H160.702V198.992H164.435V197.18Z" fill="#CEAC7A"/>
<path d="M170.677 196.393H169.459V204.226H170.677V196.393Z" fill="#CEAC7A"/>
<path d="M171.331 196.952V195.553H168.805V196.952H171.331Z" fill="#CEAC7A"/>
<path d="M154.946 201.357C155.003 201.771 155.177 202.161 155.449 202.479C155.721 202.797 156.078 203.03 156.479 203.15C156.88 203.27 157.306 203.272 157.708 203.156C158.11 203.04 158.47 202.811 158.745 202.496C159.021 202.181 159.199 201.794 159.26 201.38C159.321 200.966 159.262 200.544 159.089 200.163C158.916 199.782 158.637 199.459 158.286 199.232C157.934 199.005 157.525 198.884 157.107 198.884C156.494 198.929 155.923 199.213 155.518 199.676C155.114 200.139 154.908 200.743 154.946 201.357Z" fill="#CEAC7A"/>
<path d="M155.714 196.729C155.751 196.996 155.864 197.247 156.04 197.452C156.215 197.656 156.446 197.806 156.704 197.883C156.962 197.96 157.237 197.961 157.496 197.886C157.755 197.811 157.987 197.664 158.164 197.46C158.341 197.257 158.456 197.008 158.495 196.741C158.534 196.474 158.496 196.202 158.384 195.957C158.273 195.711 158.093 195.503 157.867 195.357C157.64 195.211 157.376 195.133 157.107 195.133C156.711 195.162 156.343 195.346 156.083 195.645C155.822 195.944 155.69 196.334 155.714 196.729Z" fill="#CEAC7A"/>
<path d="M133.897 201.357C133.954 201.772 134.129 202.161 134.401 202.479C134.673 202.797 135.031 203.03 135.432 203.15C135.833 203.27 136.26 203.272 136.662 203.156C137.064 203.039 137.424 202.81 137.699 202.494C137.974 202.179 138.152 201.791 138.212 201.376C138.272 200.962 138.212 200.539 138.038 200.159C137.865 199.778 137.585 199.455 137.233 199.229C136.88 199.003 136.471 198.883 136.052 198.884C135.44 198.93 134.871 199.216 134.467 199.678C134.064 200.141 133.859 200.744 133.897 201.357Z" fill="#CEAC7A"/>
<path d="M136.052 198.326C136.821 198.326 137.444 197.611 137.444 196.729C137.444 195.848 136.821 195.133 136.052 195.133C135.283 195.133 134.66 195.848 134.66 196.729C134.66 197.611 135.283 198.326 136.052 198.326Z" fill="#CEAC7A"/>
<path d="M128.934 196.927C128.251 196.977 127.615 197.294 127.166 197.81C126.716 198.326 126.488 198.999 126.533 199.682C126.533 201.201 127.607 202.437 128.934 202.437C130.26 202.437 131.335 201.201 131.335 199.682C131.379 198.999 131.152 198.326 130.702 197.81C130.252 197.294 129.617 196.977 128.934 196.927ZM128.934 200.961C128.673 200.997 128.408 200.954 128.173 200.836C127.939 200.717 127.745 200.53 127.62 200.299C127.494 200.068 127.442 199.804 127.471 199.543C127.499 199.282 127.607 199.035 127.779 198.837C127.952 198.638 128.181 198.497 128.435 198.432C128.69 198.368 128.959 198.382 129.205 198.474C129.451 198.566 129.664 198.731 129.814 198.947C129.964 199.163 130.044 199.419 130.044 199.682C130.066 199.999 129.961 200.311 129.753 200.551C129.545 200.79 129.25 200.938 128.934 200.961Z" fill="#CEAC7A"/>
<path d="M122.584 221.649C120.681 221.649 119.133 223.45 119.133 225.611C119.133 227.771 120.681 229.572 122.584 229.572C124.486 229.572 126.041 227.801 126.041 225.611C126.041 223.42 124.492 221.649 122.584 221.649ZM122.584 227.447C122.21 227.499 121.829 227.435 121.492 227.264C121.155 227.093 120.879 226.823 120.699 226.491C120.52 226.158 120.446 225.779 120.488 225.404C120.53 225.029 120.686 224.675 120.934 224.391C121.182 224.106 121.512 223.904 121.878 223.812C122.244 223.719 122.629 223.741 122.983 223.874C123.337 224.006 123.641 224.244 123.856 224.554C124.071 224.864 124.186 225.233 124.186 225.611C124.216 226.066 124.064 226.515 123.764 226.86C123.463 227.204 123.039 227.415 122.584 227.447Z" fill="#CEAC7A"/>
<path d="M143.776 194.965C143.379 194.91 142.975 194.977 142.617 195.158C142.26 195.339 141.966 195.625 141.775 195.978C141.584 196.331 141.506 196.733 141.55 197.131C141.594 197.53 141.758 197.905 142.022 198.208C142.285 198.51 142.634 198.725 143.023 198.823C143.411 198.922 143.821 198.899 144.196 198.759C144.572 198.618 144.895 198.366 145.124 198.037C145.352 197.708 145.475 197.316 145.475 196.915C145.506 196.432 145.345 195.956 145.027 195.59C144.709 195.225 144.26 195 143.776 194.965ZM143.776 197.816C143.592 197.841 143.405 197.81 143.239 197.726C143.073 197.642 142.936 197.51 142.848 197.346C142.759 197.183 142.723 196.996 142.744 196.811C142.764 196.626 142.841 196.452 142.963 196.312C143.086 196.172 143.248 196.073 143.428 196.027C143.609 195.982 143.798 195.993 143.972 196.059C144.146 196.124 144.296 196.242 144.402 196.395C144.507 196.548 144.563 196.73 144.563 196.915C144.579 197.141 144.506 197.363 144.358 197.534C144.211 197.705 144.002 197.811 143.776 197.828V197.816Z" fill="#CEAC7A"/>
<path d="M145.157 202.077V200.679H141.34V202.077H145.157Z" fill="#CEAC7A"/>
<path d="M144.884 202.829L145.568 202.829L145.567 199.924L144.883 199.924L144.884 202.829Z" fill="#CEAC7A"/>
<path d="M152.185 188.345H153.404V180.512H152.185V188.345Z" fill="#CEAC7A"/>
<path d="M155.174 184.761H158.907V182.949H155.174V184.761Z" fill="#CEAC7A"/>
<path d="M155.174 187.558H158.907V185.746H155.174V187.558Z" fill="#CEAC7A"/>
<path d="M123.97 182.313V188.195H125.549V182.313H123.97Z" fill="#CEAC7A"/>
<path d="M97.1354 181.37V187.252H98.7139V181.37H97.1354Z" fill="#CEAC7A"/>
<path d="M121.539 182.313V188.195H123.118V182.313H121.539Z" fill="#CEAC7A"/>
<path d="M148.932 188.345H150.151V180.512H148.932V188.345Z" fill="#CEAC7A"/>
<path d="M148.278 187.786V189.185H150.805V187.786H148.278Z" fill="#CEAC7A"/>
<path d="M136.562 215.215H142.474V208.349H136.562V215.215Z" fill="#CEAC7A"/>
<path d="M102.771 229.308H108.683V222.442H102.771V229.308Z" fill="#CEAC7A"/>
<path d="M177.117 189.239H179.518V181.575H177.117V189.239Z" fill="#CEAC7A"/>
<path d="M186.96 185.056C186.96 183.537 185.886 182.301 184.56 182.301C183.233 182.301 182.159 183.537 182.159 185.056C182.159 185.692 182.412 186.303 182.862 186.753C183.312 187.203 183.923 187.456 184.56 187.456C185.196 187.456 185.807 187.203 186.257 186.753C186.708 186.303 186.96 185.692 186.96 185.056Z" fill="#CEAC7A"/>
<path d="M164.657 183.381C164.601 182.966 164.426 182.577 164.154 182.259C163.882 181.941 163.524 181.708 163.123 181.588C162.722 181.468 162.295 181.466 161.893 181.582C161.491 181.699 161.131 181.928 160.856 182.244C160.581 182.559 160.403 182.947 160.343 183.362C160.282 183.776 160.343 184.199 160.516 184.579C160.69 184.96 160.97 185.283 161.322 185.509C161.674 185.735 162.084 185.855 162.503 185.854C163.115 185.809 163.686 185.524 164.089 185.061C164.493 184.598 164.697 183.994 164.657 183.381Z" fill="#CEAC7A"/>
<path d="M162.503 189.605C163.272 189.605 163.895 188.89 163.895 188.009C163.895 187.127 163.272 186.412 162.503 186.412C161.733 186.412 161.11 187.127 161.11 188.009C161.11 188.89 161.733 189.605 162.503 189.605Z" fill="#CEAC7A"/>
<path d="M105.898 188.345H107.117V180.512H105.898V188.345Z" fill="#CEAC7A"/>
<path d="M108.881 184.761H112.614V182.949H108.881V184.761Z" fill="#CEAC7A"/>
<path d="M108.881 187.558H112.614V185.746H108.881V187.558Z" fill="#CEAC7A"/>
<path d="M102.645 188.345H103.864V180.512H102.645V188.345Z" fill="#CEAC7A"/>
<path d="M101.991 187.786V189.185H104.518V187.786H101.991Z" fill="#CEAC7A"/>
<path d="M116.438 225.395C116.38 224.98 116.204 224.591 115.932 224.274C115.659 223.957 115.301 223.725 114.9 223.606C114.499 223.487 114.072 223.486 113.671 223.603C113.269 223.72 112.91 223.95 112.635 224.265C112.361 224.581 112.183 224.969 112.123 225.383C112.064 225.797 112.124 226.219 112.298 226.6C112.472 226.98 112.751 227.303 113.103 227.528C113.455 227.754 113.865 227.874 114.283 227.873C114.896 227.827 115.466 227.541 115.87 227.077C116.273 226.613 116.477 226.008 116.438 225.395Z" fill="#CEAC7A"/>
<path d="M118.532 188.009C118.495 187.742 118.383 187.491 118.207 187.286C118.032 187.082 117.801 186.932 117.543 186.855C117.284 186.778 117.009 186.777 116.751 186.852C116.492 186.926 116.26 187.074 116.083 187.277C115.905 187.481 115.791 187.73 115.751 187.997C115.712 188.264 115.751 188.536 115.862 188.781C115.974 189.027 116.154 189.235 116.38 189.381C116.607 189.527 116.87 189.605 117.14 189.605C117.536 189.577 117.905 189.394 118.166 189.095C118.427 188.795 118.559 188.405 118.532 188.009Z" fill="#CEAC7A"/>
<path d="M139.419 183.381C139.361 182.968 139.186 182.581 138.915 182.265C138.643 181.949 138.286 181.718 137.887 181.599C137.487 181.48 137.062 181.478 136.662 181.595C136.261 181.711 135.903 181.94 135.629 182.254C135.355 182.568 135.178 182.954 135.117 183.367C135.057 183.779 135.117 184.2 135.289 184.58C135.461 184.959 135.739 185.281 136.089 185.507C136.44 185.733 136.848 185.853 137.264 185.854C137.877 185.809 138.447 185.524 138.851 185.061C139.254 184.598 139.459 183.994 139.419 183.381Z" fill="#CEAC7A"/>
<path d="M138.645 188.009C138.608 187.742 138.495 187.491 138.32 187.286C138.144 187.082 137.913 186.932 137.655 186.855C137.397 186.778 137.122 186.777 136.863 186.852C136.604 186.926 136.372 187.074 136.195 187.277C136.018 187.481 135.903 187.73 135.864 187.997C135.825 188.264 135.863 188.536 135.975 188.781C136.086 189.027 136.266 189.235 136.493 189.381C136.719 189.527 136.983 189.605 137.252 189.605C137.648 189.576 138.016 189.392 138.277 189.093C138.537 188.794 138.67 188.404 138.645 188.009Z" fill="#CEAC7A"/>
<path d="M144.383 187.811C145.066 187.761 145.701 187.444 146.151 186.928C146.601 186.412 146.828 185.739 146.783 185.056C146.783 183.537 145.709 182.301 144.383 182.301C143.056 182.301 141.982 183.537 141.982 185.056C141.937 185.739 142.165 186.412 142.615 186.928C143.064 187.444 143.7 187.761 144.383 187.811ZM144.383 183.777C144.643 183.741 144.908 183.784 145.143 183.903C145.378 184.021 145.571 184.208 145.697 184.439C145.822 184.67 145.874 184.934 145.846 185.195C145.817 185.456 145.709 185.703 145.537 185.901C145.365 186.1 145.136 186.241 144.881 186.306C144.626 186.37 144.358 186.356 144.111 186.264C143.865 186.172 143.653 186.007 143.503 185.791C143.353 185.575 143.272 185.319 143.272 185.056C143.251 184.739 143.356 184.427 143.564 184.187C143.772 183.948 144.066 183.8 144.383 183.777Z" fill="#CEAC7A"/>
<path d="M129.54 189.773C129.937 189.828 130.341 189.761 130.699 189.58C131.057 189.398 131.351 189.113 131.541 188.76C131.732 188.407 131.811 188.005 131.767 187.607C131.723 187.208 131.558 186.833 131.295 186.53C131.031 186.228 130.682 186.013 130.293 185.915C129.905 185.816 129.495 185.839 129.12 185.979C128.745 186.12 128.421 186.372 128.192 186.701C127.964 187.03 127.841 187.422 127.841 187.823C127.811 188.306 127.973 188.781 128.291 189.146C128.609 189.511 129.057 189.736 129.54 189.773ZM129.54 186.922C129.724 186.897 129.912 186.928 130.078 187.012C130.244 187.096 130.38 187.228 130.468 187.392C130.557 187.555 130.593 187.742 130.573 187.927C130.552 188.112 130.475 188.286 130.353 188.426C130.231 188.566 130.068 188.665 129.888 188.711C129.708 188.756 129.518 188.745 129.344 188.679C129.17 188.614 129.02 188.496 128.915 188.343C128.809 188.19 128.753 188.008 128.754 187.823C128.74 187.599 128.815 187.38 128.962 187.211C129.109 187.043 129.317 186.939 129.54 186.922Z" fill="#CEAC7A"/>
<path d="M128.159 182.661V184.059H131.977V182.661H128.159Z" fill="#CEAC7A"/>
<path d="M128.436 181.911H127.751V184.815H128.436V181.911Z" fill="#CEAC7A"/>
<path d="M95.773 241.33C96.4812 240.214 96.5893 238.929 96.0071 238.425C95.4249 237.921 94.3746 238.425 93.6603 239.553C92.9461 240.682 92.8441 241.954 93.4322 242.458C94.0204 242.962 95.0648 242.44 95.773 241.33Z" fill="#9B2C1E"/>
<path d="M162.383 259.612L156.807 257.007L147.006 259.258L133.069 262.217L126.155 251.803L134.203 261.274L146.897 258.783L157.017 254.762L162.383 259.612Z" fill="#8E4F39"/>
<path d="M78.7034 224.704L80.2639 222.304C75.5764 220.449 70.9849 220.155 69.3224 225.821C67.6599 231.487 70.6909 235.496 75.9666 238.035L76.7468 235.982C76.7468 235.982 69.3224 231 71.081 226.601C72.8395 222.202 78.7034 224.704 78.7034 224.704Z" fill="#B73434"/>
<path d="M78.5354 225.989L79.8738 224.14C75.8585 222.454 71.9213 222.016 70.4988 226.451C69.0763 230.886 71.6992 234.218 76.1887 236.474L76.8609 234.878C76.8609 234.878 70.4988 230.574 72.0053 227.153C73.5118 223.732 78.5354 225.989 78.5354 225.989Z" fill="#A02A2A"/>
<path d="M98.2998 224.704L96.7093 222.304C101.511 220.449 106.15 220.155 107.843 225.821C109.535 231.487 106.45 235.496 101.085 238.035L100.286 235.982C100.286 235.982 107.843 231 106.054 226.601C104.266 222.202 98.2998 224.704 98.2998 224.704Z" fill="#CC3B3B"/>
<path d="M98.1677 225.845L96.8233 223.804C100.857 222.238 104.806 222.004 106.234 226.805C107.663 231.607 105.034 234.98 100.52 237.128L99.8483 235.394C99.8483 235.394 106.234 231.192 104.722 227.465C103.209 223.738 98.1677 225.845 98.1677 225.845Z" fill="#A02A2A"/>
<path d="M81.6684 268.297H97.8317C98.3478 267.024 93.7323 267.414 93.8164 264.431C93.9784 258.855 102.219 250.387 102.129 236.486C102.129 229.776 96.1271 218.18 96.1271 218.18L96.5832 205.942C96.5832 205.942 98.762 205.456 98.834 204.328C98.834 204.022 98.864 203.728 98.864 203.506C98.8649 203.39 98.8395 203.276 98.7895 203.172C98.7396 203.068 98.6665 202.977 98.5759 202.905C98.4848 202.831 98.3776 202.78 98.2629 202.755C98.1483 202.73 98.0293 202.732 97.9157 202.761L81.2063 206.831C81.1046 206.854 81.0107 206.903 80.9339 206.974C80.8571 207.044 80.7999 207.133 80.7681 207.233C80.7317 207.334 80.723 207.443 80.7431 207.548C80.7631 207.654 80.8112 207.752 80.8822 207.833C81.3143 208.361 82.2206 208.877 84.1172 208.487L83.6071 216.89C83.6071 216.89 74.292 224.62 75.6545 239.745C77.0169 254.87 85.4616 262.649 85.7677 264.449C86.2299 267.174 81.2303 266.73 81.6684 268.297Z" fill="#CC3B3B"/>
<path d="M89.765 206.231C86.8285 206.935 83.8493 207.449 80.8462 207.767C81.2603 208.307 82.1666 208.871 84.1172 208.469L83.6071 216.872C83.6071 216.872 74.292 224.602 75.6545 239.727C77.0169 254.852 85.4616 262.649 85.7677 264.449C86.2299 267.186 81.2303 266.748 81.6684 268.315H97.8317C98.3478 267.042 93.7323 267.432 93.8164 264.449C93.8973 263.276 94.1732 262.123 94.6326 261.04C93.9378 261.227 93.2214 261.322 92.5019 261.322C85.0595 261.322 78.9375 251.263 78.8295 238.851C78.7215 226.439 84.6694 216.386 92.1118 216.386C93.5211 216.393 94.9076 216.743 96.1511 217.406L96.5772 205.96C96.5772 205.96 98.756 205.474 98.828 204.346C98.828 204.022 98.858 203.746 98.858 203.488C95.8947 204.613 92.8563 205.529 89.765 206.231Z" fill="#B73434"/>
<path d="M87.2982 208.631C87.4483 208.631 95.851 206.771 95.851 206.771C95.851 206.771 97.1174 215.077 92.1838 215.563C87.2502 216.05 87.2982 208.631 87.2982 208.631Z" fill="#CC3B3B"/>
<path d="M86.1938 232.129L87.4603 234.374L85.6657 238.413L87.5143 242.686L86.9741 242.68L82.4786 236.72L82.9708 232.909L84.6273 229.98L88.1445 228.84L88.5586 229.098L86.1938 232.129Z" fill="#9E2525"/>
<path d="M89.9691 255.434L96.8473 245.597L98.5519 235.304L97.1895 234.056L98.6419 231.529L94.8067 225.569L88.4686 226.895L92.544 235.484L95.9651 239.463L95.4369 244.133L89.9691 255.434Z" fill="#9E2525"/>
<g style="mix-blend-mode:multiply" opacity="0.46">
<g style="mix-blend-mode:multiply" opacity="0.46">
<path d="M99.074 224.704H78.0672C77.3499 226.276 76.7832 227.912 76.3747 229.59H100.833C100.31 227.909 99.6922 226.235 99.074 224.704Z" fill="#703737"/>
</g>
<g style="mix-blend-mode:multiply" opacity="0.46">
<path d="M99.4702 250.231H77.9592C78.2773 251.119 78.6074 251.971 78.9556 252.776H98.4319C98.78 251.959 99.1281 251.113 99.4702 250.231Z" fill="#703737"/>
</g>
<g style="mix-blend-mode:multiply" opacity="0.46">
<path d="M96.1992 257.511H81.3624C81.6204 257.955 81.8785 258.381 82.1306 258.783H95.599C95.791 258.369 95.9891 257.949 96.1992 257.511Z" fill="#703737"/>
</g>
</g>
<path d="M86.7161 232.195L87.9825 234.44L86.614 238.935C86.614 238.935 87.6884 243.034 87.4963 242.746C87.3042 242.458 83.0009 236.786 83.0009 236.786L83.493 232.975L85.1496 230.046L88.5707 229.068L87.9104 231.415L86.7161 232.195Z" fill="#442222"/>
<path d="M89.777 255.548L96.5172 244.973L97.7236 235.256L96.3612 234.007L97.8136 231.481L94.4946 226.325L88.4206 226.895L91.7157 235.436L95.1368 239.415L94.6086 244.085L89.777 255.548Z" fill="#442222"/>
<g style="mix-blend-mode:overlay">
<path d="M95.1067 212.719C95.5029 211.704 95.2688 210.99 94.6926 211.062C94.1164 211.134 93.5642 211.764 93.2161 212.539C92.868 213.313 92.868 214.147 93.3121 214.339C93.7563 214.531 94.6866 213.793 95.1067 212.719Z" fill="white"/>
</g>
<g style="mix-blend-mode:overlay">
<path d="M95.5749 209.231C95.5269 208.703 95.2508 208.445 94.9747 208.631C94.8453 208.753 94.7463 208.903 94.6858 209.07C94.6253 209.237 94.605 209.415 94.6266 209.592C94.6266 210.024 94.8367 210.372 95.0827 210.348C95.3288 210.324 95.6289 209.79 95.5749 209.231Z" fill="white"/>
</g>
<g style="mix-blend-mode:overlay">
<path d="M96.5352 220.035C95.6109 218.186 93.4502 216.554 92.82 219.177C92.5079 220.479 94.6206 223.468 96.4572 225.629C101.253 231.241 98.2398 223.456 96.5352 220.035Z" fill="white"/>
</g>
<path d="M95.5509 267.45C95.2328 266.79 91.8957 265.199 89.9391 265.199C87.9825 265.199 84.6274 266.802 84.3273 267.45H95.5509Z" fill="#CC3B3B"/>
<g style="mix-blend-mode:overlay">
<path d="M99.1881 248.298C99.3682 247.536 99.2542 247.266 99.0141 247.398C98.5658 247.792 98.2058 248.277 97.9578 248.82C97.1955 250.219 96.2712 252.608 96.7574 252.728C97.4236 252.878 98.822 249.841 99.1881 248.298Z" fill="white"/>
</g>
<g style="mix-blend-mode:overlay">
<path d="M99.0321 229.14C98.992 229.116 98.9471 229.101 98.9006 229.096C98.854 229.091 98.807 229.097 98.7629 229.112C98.7188 229.128 98.6786 229.153 98.6452 229.186C98.6119 229.218 98.5862 229.258 98.5699 229.302C98.5106 229.56 98.538 229.83 98.6479 230.07C98.906 230.742 99.7283 231.793 100.106 231.199C100.485 230.604 99.5782 229.344 99.0321 229.14Z" fill="white"/>
</g>
<path d="M25.1542 267.57L123.586 270.889C123.586 270.889 97.0334 254.084 91.0135 254.372C84.9935 254.66 42.3978 261.01 42.3978 261.01L25.1542 267.57Z" fill="#FFC950"/>
<path d="M85.6537 254.93C72.4855 256.539 42.3617 261.01 42.3617 261.01L25.1542 267.57L86.2059 269.629C79.7718 263.375 72.7136 257.943 85.6537 254.93Z" fill="#E89838"/>
<path d="M44.5224 263.597C44.5224 263.597 41.6295 260.356 38.7365 260.242C35.8436 260.128 3.54114 270.889 3.54114 270.889L123.082 270.859C98.7139 257.055 44.5224 263.597 44.5224 263.597Z" fill="#FFC950"/>
<path d="M34.2111 261.592C34.2102 261.46 34.2368 261.33 34.2891 261.208C24.698 263.849 3.54114 270.889 3.54114 270.889H80.0659C38.1963 270.121 34.2111 265.122 34.2111 261.592Z" fill="#E89838"/>
<path d="M191.305 57.055C190.679 58.4138 190.486 59.1077 191.835 59.6859C192.982 60.1774 193.175 61.7387 194.235 61.9699C195.141 62.1723 196.037 61.7965 195.758 61.0062C195.478 60.216 193.83 58.8861 194.158 58.7801C194.486 58.6741 195.758 59.1559 195.902 58.9728C196.047 58.7897 196.22 57.7296 195.758 57.479C195.295 57.2285 191.585 56.3997 191.305 57.055Z" fill="#EA7150"/>
<path d="M188.79 56.4574C188.356 57.9994 188.231 58.7222 189.185 59.0787C190.139 59.4353 190.313 61.2471 191.382 61.5169C192.452 61.7868 193.666 61.2471 193.31 60.1677C192.953 59.0884 191.016 57.7681 191.334 57.5464C191.652 57.3248 194.052 57.4693 194.225 57.1513C194.399 56.8333 193.927 55.2239 193.262 55.1083C192.597 54.9926 189.021 55.6479 188.79 56.4574Z" fill="#EA7150"/>
<path d="M226.596 71.7709C225.864 70.2289 226.153 68.3304 226.741 67.7233C227.329 67.1162 228.572 64.225 229.449 65.1213C230.326 66.0175 228.312 67.8582 228.1 68.7159C227.888 69.5736 229.912 71.5107 229.912 71.5107L226.596 71.7709Z" fill="#EA7150"/>
<path d="M225.401 70.3831C224.65 68.5906 224.9 66.4127 225.459 65.7284C226.018 65.0442 227.204 61.7676 228.08 62.8373C228.957 63.907 227.011 65.9501 226.818 66.9234C226.625 67.8968 228.649 70.2193 228.649 70.2193L225.401 70.3831Z" fill="#EA7150"/>
<path d="M225.787 68.6196C224.611 67.068 224.303 64.8996 224.679 64.0997C225.054 63.2999 225.353 59.8208 226.471 60.6304C227.589 61.4399 226.221 63.9166 226.288 64.8996C226.355 65.8826 228.89 67.6559 228.89 67.6559L225.787 68.6196Z" fill="#FF9976"/>
<path d="M234.952 270.999H243.625C243.625 270.999 244.724 265.082 243.307 264.446C241.891 263.81 239.038 268.773 239.038 268.773C239.038 268.773 234.152 269.361 234.952 270.999Z" fill="#FFEECF"/>
<path d="M240.551 175.592C242.613 178.406 263.68 182.337 271.978 179.523L271.794 173.433L243.741 170.619L240.551 175.592Z" fill="#C46C30"/>
<path d="M266.629 147.143L252.578 158.177C252.674 199.318 242.787 258.769 241.437 266.633C241.423 266.741 241.43 266.851 241.46 266.955C241.49 267.06 241.541 267.157 241.611 267.24C241.681 267.323 241.768 267.388 241.866 267.433C241.965 267.478 242.072 267.501 242.18 267.501H242.237C242.392 267.5 242.542 267.451 242.668 267.361C242.794 267.271 242.889 267.145 242.941 266.999C262.976 208.502 266.629 147.143 266.629 147.143Z" fill="#FF9976"/>
<path d="M258.919 205.062C262.585 185.917 265.159 166.58 266.629 147.143L252.578 158.177C252.578 168.373 252.019 179.697 251.094 191.078C254.226 193.526 256.905 198.46 258.919 205.062Z" fill="#EA7150"/>
<path d="M219.079 90.544C223.811 84.7617 228.948 78.9795 231.492 72.5226C234.036 66.0657 242.604 57.4887 245.389 62.0278C248.174 66.5669 248.54 74.2669 245.061 82.4777C241.582 90.6886 221.932 107.833 218.173 107.891C214.415 107.949 215.571 94.8711 219.079 90.544Z" fill="#FFD961"/>
<path d="M245.389 62.0278C245.159 61.6164 244.817 61.279 244.402 61.0554C243.987 60.8318 243.517 60.7311 243.047 60.7653C245.109 65.4008 245.1 72.3299 241.958 79.7504C238.71 87.4601 221.402 102.822 216.053 104.923C216.352 106.715 217.017 107.91 218.174 107.891C221.913 107.833 242.507 91.0644 245.986 82.8343C249.465 74.6042 248.183 66.5765 245.389 62.0278Z" fill="#FFBA55"/>
<path d="M243.461 174.628C252.665 174.127 258.967 174.531 271.467 178.145L271.072 110.792L252.607 118.058V130.018L243.461 174.628Z" fill="#FFD961"/>
<path d="M252.462 174.493C257.85 174.763 263.352 175.755 271.467 178.097L271.072 110.743L263.468 113.211C266.754 138.392 261.859 159.796 252.462 174.493Z" fill="#FFBA55"/>
<path d="M268.2 176.218C270.127 179.186 289.787 184.631 297.477 182.415L297.304 176.305L271.178 171.486L268.2 176.218Z" fill="#C46C30"/>
<path d="M269.289 270.999H277.962C277.962 270.999 279.061 265.082 277.644 264.446C276.228 263.81 273.375 268.773 273.375 268.773C273.375 268.773 268.547 269.361 269.289 270.999Z" fill="#FFEECF"/>
<path d="M289.527 146.767L276.574 157.84C280.786 199.28 276.382 259.261 275.803 266.681C275.798 266.778 275.813 266.875 275.846 266.966C275.879 267.057 275.93 267.141 275.996 267.212C276.062 267.284 276.142 267.342 276.232 267.382C276.322 267.422 276.419 267.443 276.517 267.443H276.565C276.894 267.441 277.214 267.329 277.472 267.125C277.731 266.921 277.914 266.636 277.991 266.315C292.042 207.828 289.527 146.767 289.527 146.767Z" fill="#FF9976"/>
<path d="M280.044 195.829C282.935 195.829 285.518 199.684 287.522 206.054C289.359 186.336 290.029 166.526 289.527 146.728L276.574 157.801C277.779 169.665 278.28 183.051 278.367 196.282C278.88 195.997 279.456 195.841 280.044 195.829Z" fill="#EA7150"/>
<path d="M211.823 104.325C211.62 108.411 218.569 110.647 221.123 109.76C223.676 108.874 229.266 92.0184 221.489 88.366C216.844 86.188 211.996 100.239 211.823 104.325Z" fill="#FFEDBB"/>
<path d="M213.683 102.099C209.259 96.5672 198.331 66.1621 197.502 63.801L198.957 61.9603C198.957 61.9603 216.352 85.0894 218.945 89.7152C221.537 94.341 222.626 99.5161 221.084 101.338C219.542 103.159 215.803 104.759 213.683 102.099Z" fill="#FF9976"/>
<path d="M173.101 71.4336L175.491 75.9341C175.491 75.9341 194.659 57.1514 191.671 58.2018C189.281 59.0499 173.101 71.4336 173.101 71.4336Z" fill="#A33D3D"/>
<path d="M161.883 79.4132C164.109 80.7913 173.563 77.9965 175.375 76.1751C177.187 74.3537 175.934 71.53 173.544 70.8265C171.154 70.123 158.076 61.1123 156.959 62.2398C155.841 63.3674 156.255 70.6819 156.255 70.6819L154 70.2579L155.262 74.0549L160.611 74.479C160.611 74.479 160.052 78.2567 161.883 79.4132Z" fill="#C96767"/>
<path d="M240.956 175.457L241.582 165.058C253.763 164.287 261.897 166.022 272.922 170.503L272.17 178.945C260.432 176.006 252.752 175.591 240.956 175.457Z" fill="#FFEDBB"/>
<path d="M258.563 165.954C259.965 169.27 260.051 172.995 258.804 176.372C263.308 176.934 267.773 177.78 272.17 178.907L272.922 170.465C268.288 168.513 263.48 167.003 258.563 165.954Z" fill="#EDD18C"/>
<path d="M268.229 175.987L297.362 182.039C297.362 182.039 301.583 122.231 291.579 100.557L263.169 114.666L265.791 139.558L267.805 139.722L268.229 175.987Z" fill="#FFD961"/>
<path d="M252.433 119.157L252.597 121.518C252.597 121.518 277.22 119.157 288.621 114.328L286.144 102.186L252.433 119.157Z" fill="#FFBA55"/>
<path d="M291.589 100.557L283.947 104.354C286.561 114.576 287.841 125.095 287.753 135.646C287.753 152.992 284.621 168.412 279.764 178.386L297.362 182.039C297.362 182.039 301.583 122.231 291.589 100.557Z" fill="#FFBA55"/>
<path d="M266.099 178.483L266.754 168.075C279.282 167.439 287.657 169.298 299.01 173.857L298.239 182.299C286.154 179.234 278.242 178.752 266.099 178.483Z" fill="#FFEDBB"/>
<path d="M284.352 169.231C285.484 172.598 285.641 176.216 284.805 179.668C289.329 180.287 293.812 181.179 298.229 182.338L299 173.895C294.268 171.901 289.365 170.339 284.352 169.231Z" fill="#EDD18C"/>
<path d="M219.253 17.5429C223.474 12.4641 234.74 -0.478543 242.902 0.196055C251.065 0.870654 255.566 9.48623 255.7 15.8178C255.835 22.1494 253.31 35.5161 253.31 35.5161L219.253 17.5429Z" fill="#FFD961"/>
<path d="M255.7 15.8467C255.575 10.2187 252.009 2.82701 245.553 0.745392C246.468 1.31649 247.218 2.11854 247.725 3.07094C248.233 4.02334 248.48 5.09253 248.444 6.17108C248.55 11.2017 246.102 25.4935 245.1 31.1505L253.407 35.545C253.407 35.545 255.845 22.1783 255.7 15.8467Z" fill="#F7C64B"/>
<path d="M221.797 45.0857C210.233 40.2672 198.716 34.3211 194.216 19.0655C189.715 3.80997 228.582 11.5968 246.738 23.2673C264.894 34.9378 274.464 45.2303 268.682 52.5063C262.899 59.7823 221.797 45.0857 221.797 45.0857Z" fill="#FFD961"/>
<path d="M221.18 46.2808C209.616 41.4622 198.099 35.5257 193.599 20.2606C189.098 4.99538 227.965 12.7243 246.112 24.4142C264.258 36.104 273.809 46.4542 268.036 53.711C262.263 60.9677 221.18 46.2808 221.18 46.2808Z" fill="#FCC64C"/>
<path d="M246.112 24.4142C244.339 23.2851 242.509 22.2494 240.628 21.311C247.923 31.6902 247.885 42.4548 239.5 47.6203C237.456 48.8365 235.205 49.6662 232.86 50.0681C245.475 53.8459 264.277 58.4524 268.036 53.711C273.809 46.4542 264.268 36.0847 246.112 24.4142Z" fill="#F7B93C"/>
<path d="M229.574 23.6431C216.901 21.4941 235.915 49.2008 235.915 49.2008C238.546 51.9281 246.767 50.097 249.301 44.4593C251.836 38.8216 242.237 25.7922 229.574 23.6431Z" fill="#8C3926"/>
<path d="M247.364 47.5529C254.891 47.389 257.657 48.0058 260.066 52.834C262.475 57.6622 266.648 63.7817 271.746 62.4711C269.767 63.7348 267.503 64.4847 265.161 64.653C262.819 64.8213 260.471 64.4026 258.331 63.4348C250.535 60.1196 242.739 47.6492 247.364 47.5529Z" fill="#8C3926"/>
<path d="M251.479 119.985C251.479 119.985 280.612 115.34 294.846 100.422C294.846 100.422 290.028 95.3529 290.625 94.2254C291.223 93.0978 292.312 92.1148 290.76 90.9873C289.209 89.8598 275.563 81.2827 273.173 75.0861C270.783 68.8894 265.039 57.055 260.259 56.5153C255.479 55.9757 239.664 62.1434 239.664 63.801C239.664 65.4586 236.706 91.1029 239.385 92.934C242.064 94.765 247.682 93.7821 247.682 93.7821C253.59 92.3943 249.793 119.985 251.479 119.985Z" fill="#FFD961"/>
<path d="M290.606 94.2254C291.165 93.0978 292.293 92.1148 290.741 90.9873C289.189 89.8597 275.543 81.2827 273.153 75.086C270.869 69.1881 265.559 58.1632 260.924 56.6695C270.185 74.4885 259.073 87.8167 239.51 93.04C242.228 94.7554 247.682 93.811 247.682 93.811C251.373 92.9243 251.277 103.332 251.094 111.283C253.561 86.1109 275.341 97.3285 284.882 108.17C288.523 106.052 291.868 103.459 294.827 100.461C294.827 100.461 290.037 95.3529 290.606 94.2254Z" fill="#FFBA55"/>
<path d="M244.396 97.3285C247.933 90.1296 251.903 82.8728 253.07 75.8377C254.236 68.8026 260.972 57.6429 264.942 60.9098C268.913 64.1768 271.043 71.3276 269.356 80.3383C267.67 89.3489 251.335 112.613 247.48 114.02C243.625 115.427 241.775 102.667 244.396 97.3285Z" fill="#FFD961"/>
<path d="M244.348 97.7236L245.466 95.4878C247.702 95.9522 249.81 96.9002 251.641 98.2654C253.472 99.6305 254.983 101.38 256.067 103.39L250.776 108.777L244.348 97.7236Z" fill="#FFBA55"/>
<path d="M264.942 60.9099C264.825 60.8123 264.699 60.7252 264.567 60.6497C267.458 64.3889 268.739 70.6626 267.313 78.2856C265.617 87.2963 249.301 110.56 245.447 111.967C245.192 112.066 244.916 112.096 244.647 112.054C245.379 113.586 246.343 114.434 247.538 113.981C251.393 112.574 268.537 89.773 270.224 80.7623C271.91 71.7516 268.884 64.2058 264.942 60.9099Z" fill="#FFBA55"/>
<path d="M240.088 114.213C240.647 118.617 249.157 117.441 251.508 115.379C253.86 113.316 253.436 97.2706 245.186 96.7888C240.31 96.5093 239.52 109.799 240.088 114.213Z" fill="#FFEDBB"/>
<path d="M218.058 36.6147C213.288 33.2707 211.447 29.6085 213.394 26.0139C216.371 20.5593 222.693 23.6528 225.112 21.1182C227.531 18.5837 225.854 17.4561 225.854 17.4561C225.854 17.4561 234.219 20.4918 229.015 25.7633C223.811 31.0348 218.058 36.6147 218.058 36.6147Z" fill="#A34B33"/>
<path d="M251.624 58.0187L243.558 41.2213L236.609 52.2943C236.609 52.2943 245.427 73.679 246.516 72.9274C253.262 68.475 251.624 58.0187 251.624 58.0187Z" fill="#FF9976"/>
<g opacity="0.53">
<g style="mix-blend-mode:multiply" opacity="0.53">
<path d="M241.158 86.3229C251.566 85.5809 258.833 62.5867 264.74 59.657C263.237 57.8935 261.704 56.6888 260.259 56.5153C258.457 56.3033 255.122 57.0454 251.643 58.1344C251.645 58.0959 251.645 58.0573 251.643 58.0187L243.558 41.2213L236.609 52.2943C236.609 52.2943 238.46 56.7755 240.58 61.5748C237.322 63.377 233.564 67.8775 231.791 71.8287C233.024 80.001 235.829 86.6988 241.158 86.3229Z" fill="#AD5F4D"/>
</g>
</g>
<path d="M230.779 69.8338C226.076 65.8152 210.271 36.3159 216.477 27.5076C222.684 18.6993 241.399 29.0399 243.288 40.4984C244.714 49.1429 234.614 73.1297 230.779 69.8338Z" fill="#F48062"/>
<path d="M229.169 67.0487C224.524 63.1938 210.078 36.3545 216.391 27.8738C222.703 19.3932 241.293 29.3483 243.047 40.4021C244.348 48.6996 232.957 70.2193 229.169 67.0487Z" fill="#FF9976"/>
<path d="M235.193 66.5765C234.976 65.4262 234.94 64.2492 235.087 63.0879C235.173 62.712 233.757 60.1967 233.795 59.58C233.834 58.9632 230.904 58.6934 231.299 60.6401C231.694 62.5867 230.75 66.4223 230.336 67.1451C229.921 67.8679 235.193 66.5765 235.193 66.5765Z" fill="#F48062"/>
<path d="M220.573 43.486C218.771 37.3279 215.205 32.6346 212.584 32.9623C209.963 33.2899 209.307 38.6096 211.1 44.7677C212.892 50.9258 216.468 55.6288 219.079 55.2625C221.691 54.8963 222.366 49.6441 220.573 43.486Z" fill="#543A34"/>
<path d="M219.956 43.563C218.164 37.4049 214.589 32.702 211.977 33.0586C209.365 33.4151 208.691 38.7445 210.483 44.8833C212.276 51.0221 215.851 55.7347 218.472 55.3781C221.094 55.0215 221.749 49.7307 219.956 43.563Z" fill="#725149"/>
<path d="M219.031 43.6401C217.354 38.147 214.213 34.003 212.006 34.3307C209.799 34.6583 209.375 39.4287 211.042 44.9315C212.709 50.4343 215.861 54.5686 218.058 54.2313C220.255 53.894 220.698 49.1333 219.031 43.6401Z" fill="#543A34"/>
<path d="M219.156 43.6306C217.557 38.3976 214.569 34.4368 212.478 34.7741C210.387 35.1114 209.972 39.5926 211.514 44.8448C213.056 50.097 216.092 54.029 218.193 53.6917C220.294 53.3544 220.747 48.8539 219.156 43.6306Z" fill="#EFEDDC"/>
<path d="M223.291 56.419C220.573 58.4813 218.414 57.9224 218.414 57.0743C218.414 56.2262 220.833 45.3941 220.833 45.3941L223.291 56.419Z" fill="#EA7150"/>
<path d="M223.975 55.5516C221.248 57.614 219.099 57.055 219.099 56.2069C219.099 55.3589 221.026 45.9819 221.026 45.9819L223.975 55.5516Z" fill="#FF9976"/>
<path d="M231.704 43.4475C229.912 37.2797 226.076 32.625 223.127 33.0298C220.178 33.4345 219.272 38.7542 221.045 44.9123C222.819 51.0704 226.683 55.7348 229.622 55.33C232.562 54.9253 233.497 49.6056 231.704 43.4475Z" fill="#543A34"/>
<path d="M231.164 43.5631C229.372 37.405 225.536 32.7406 222.587 33.155C219.638 33.5694 218.732 38.8794 220.506 45.0376C222.279 51.1957 226.143 55.8601 229.083 55.4553C232.022 55.0505 232.966 49.7405 231.164 43.5631Z" fill="#725149"/>
<path d="M230.403 44.0738C228.803 38.4939 225.295 33.9837 222.607 34.2439C219.918 34.5041 219.253 39.4865 221.103 45.1243C222.857 50.5018 226.24 54.4241 228.707 54.1061C231.174 53.7881 231.935 49.4032 230.403 44.0738Z" fill="#543A34"/>
<path d="M230.47 43.8907C228.967 38.4168 225.652 34.003 223.088 34.2536C220.525 34.5041 219.87 39.4383 221.604 44.9701C223.252 50.2416 226.423 54.0771 228.803 53.7495C231.184 53.4218 231.897 49.114 230.47 43.8907Z" fill="#EFEDDC"/>
<path d="M226.413 44.999C226.211 44.2858 225.758 43.7076 225.45 43.7365C225.141 43.7654 225.026 44.4111 225.257 45.1339C225.488 45.8567 225.922 46.3193 226.221 46.2807C226.519 46.2422 226.606 45.6832 226.413 44.999Z" fill="#725149"/>
<path d="M216.188 45.4134C215.986 44.7003 215.533 44.122 215.225 44.1509C214.916 44.1799 214.801 44.8255 215.032 45.5483C215.263 46.2711 215.697 46.7433 215.996 46.6951C216.294 46.647 216.381 46.0976 216.188 45.4134Z" fill="#725149"/>
<path d="M266.658 110.83C273.004 110.237 278.995 107.63 283.754 103.39L288.688 95.4878C281.711 101.53 272.324 109.809 266.658 110.83Z" fill="#FFBA55"/>
<path d="M220.496 43.6691H219.446L219.677 45.5676H220.737L220.496 43.6691Z" fill="#725149"/>
<path d="M241.466 52.1786C243.51 47.4083 240.599 45.0472 236.571 43.6305C232.542 42.2139 221.518 21.07 232.061 24.3563C242.604 27.6425 242.449 32.7213 244.011 35.8534C249.215 46.1651 241.466 52.1786 241.466 52.1786Z" fill="#A34B33"/>
<path d="M240.551 48.3816C242.392 45.9434 246.555 41.3273 242.604 38.0507C238.652 34.7741 236.763 40.5274 236.947 43.5631C237.043 45.2785 239.067 50.4054 240.551 48.3816Z" fill="#FF9976"/>
<path d="M240.609 46.7144C241.823 45.0954 244.589 42.0308 241.968 39.8528C239.346 37.6748 238.113 41.4718 238.209 43.5052C238.277 44.6328 239.616 48.0347 240.609 46.7144Z" fill="#C95236"/>
<path d="M240.088 46.6855C240.83 45.7218 242.527 43.7944 240.927 42.4934C239.327 41.1924 238.556 43.4571 238.623 44.7292C238.672 45.4134 239.491 47.4854 240.088 46.6855Z" fill="#FF9976"/>
<path d="M240.898 112.95C237.573 106.686 231.926 76.2521 231.55 73.8139L233.795 70.8168C233.795 70.8168 246.651 96.7021 248.338 101.771C250.024 106.84 250.159 112.073 248.338 113.586C246.516 115.099 242.488 115.918 240.898 112.95Z" fill="#FF9976"/>
<path d="M248.338 101.733C246.651 96.6636 233.795 70.7783 233.795 70.7783L233.352 71.8866C239.626 80.56 246.429 109.548 242.989 114.704C243.906 114.937 244.865 114.953 245.79 114.752C246.714 114.552 247.58 114.139 248.318 113.548C250.159 112.035 250.024 106.802 248.338 101.733Z" fill="#EA7150"/>
<path d="M231.81 75.2884C230.625 73.6212 226.992 72.6864 226.288 72.3973C225.584 72.1082 224.736 68.0606 225.604 66.8849C226.471 65.7091 228.948 68.1281 230.422 67.5016C231.897 66.8752 232.35 64.225 234.075 65.5742C235.8 66.9234 235.684 75.7992 236.06 76.734C236.436 77.6688 231.81 75.2884 231.81 75.2884Z" fill="#FF9976"/>
<path d="M230.682 42.9463L237.38 40.3154L237.014 42.0212L231.184 44.681L230.682 42.9463Z" fill="#725149"/>
<path d="M260.056 119.475L260.432 123.098L265.916 122.26L265.444 117.701L260.056 119.475Z" fill="#FFEDBB"/>
<path d="M218.944 89.7441C216.352 85.0797 198.957 61.9893 198.957 61.9893L198.543 62.5193C202.234 68.051 213.885 85.6483 215.89 89.6477C218.222 94.4663 219.031 99.6318 217.393 101.366C216.647 102.121 215.727 102.68 214.714 102.995C216.853 104.286 219.783 102.918 221.094 101.366C222.626 99.545 221.537 94.4181 218.944 89.7441Z" fill="#EA7150"/>
<path d="M235.096 68.9568C234.826 66.8848 234.354 63.7913 234.451 63.4251C234.547 63.0589 233.381 60.534 233.429 59.8883C233.477 59.2426 230.914 58.9246 231.338 60.852C231.762 62.7794 231.945 65.8633 231.569 66.5668C231.193 67.2703 235.096 68.9568 235.096 68.9568Z" fill="#FF9976"/>
<path d="M224.968 59.3101H224.63C225.43 57.8453 227.801 57.3827 230.027 58.8957L229.613 59.5222C227.868 58.0188 225.527 58.2982 224.968 59.3101Z" fill="#EA7150"/>
<path d="M228.206 59.6859C228.206 59.4932 227.599 59.1559 227.059 59.1463C226.519 59.1366 226.23 59.4643 226.259 59.657C226.288 59.8498 226.664 59.7438 227.223 59.7534C227.782 59.763 228.206 59.8787 228.206 59.6859Z" fill="#EA7150"/>
<path d="M220.409 31.3914C221.933 31.3423 223.449 31.6305 224.848 32.2352C226.248 32.84 227.496 33.7463 228.505 34.8896L229.468 33.1164C229.468 33.1164 225.238 28.5677 220.496 30.7264L220.409 31.3914Z" fill="#BC563F"/>
<path d="M214.28 30.7939C214.28 30.7939 211.129 30.3121 208.498 34.2826L207.814 32.519C208.6 31.6092 209.603 30.9123 210.73 30.4929C211.857 30.0735 213.071 29.945 214.261 30.1193L214.28 30.7939Z" fill="#BC563F"/>
<path d="M189.493 61.0737C191.064 58.9343 191.806 59.5799 193.281 59.1463C194.755 58.7126 195.767 55.2914 196.789 56.2552C197.81 57.2189 200.258 60.6111 199.42 62.8373C198.581 65.0634 196.288 64.3696 195.565 62.2783C194.842 60.1871 191.874 61.3146 191.276 62.4518C190.457 64.0034 188.694 62.2205 189.493 61.0737Z" fill="#FF9976"/>
<path d="M188.067 61.3821C186.487 61.9025 185.793 61.2857 186.535 59.8498C187.277 58.4139 188.019 56.3612 187.788 55.571C187.556 54.7807 188.299 53.0171 189.32 53.2484C190.342 53.4797 191.97 52.8726 193.464 52.969C194.958 53.0653 196.808 55.6191 197.598 58.173C198.389 60.7268 195.671 60.3124 195.131 59.9365C194.592 59.5607 194.013 56.3612 193.136 56.2166C192.259 56.0721 190.39 55.7541 190.245 56.4576C190.101 57.1611 189.6 60.9099 188.067 61.3821Z" fill="#FF9976"/>
<path d="M173.563 70.8265C172.675 70.4859 171.817 70.07 171 69.5833C172.388 71.4432 173.053 73.2839 172.407 74.7199C171.347 76.7427 169.655 78.3637 167.588 79.3361C170.836 78.6229 174.334 77.2641 175.423 76.2233C177.216 74.344 175.953 71.5107 173.563 70.8265Z" fill="#AA5252"/>
<path d="M177.322 68.2341L173.139 70.6627C176.03 72.0408 175.394 76.1751 175.394 76.1751C176.936 75.2114 180.357 71.0963 180.357 71.0963C180.357 68.2149 177.322 68.2341 177.322 68.2341Z" fill="#CCA869"/>
<path d="M162.51 69.9302C162.51 69.9302 158.953 70.9806 158.655 73.997C158.437 75.2692 158.725 76.5762 159.458 77.6386C160.191 78.7011 161.31 79.4348 162.577 79.683C162.577 79.683 158.973 75.7895 162.51 69.9302Z" fill="#E27979"/>
<path d="M230.808 5.69888C229.545 6.73005 228.312 7.83832 227.136 8.96586C235.405 10.6909 247.586 15.9913 255.17 23.6046C255.402 21.6097 255.594 19.6245 255.672 17.9091C248.718 11.5507 240.091 7.31395 230.808 5.69888Z" fill="#E55555"/>
</svg>
