<svg width="29" height="25" viewBox="0 0 29 25" fill="none" xmlns="http://www.w3.org/2000/svg">
<path d="M26.1054 3.72935H21.5769L20.4981 0.705913C20.4236 0.499027 20.287 0.320197 20.107 0.193852C19.927 0.0675058 19.7124 -0.000193999 19.4925 4.17563e-07H9.27676C8.82724 4.17563e-07 8.42433 0.283031 8.27449 0.705913L7.19232 3.72935H2.66382C1.19206 3.72935 0 4.92141 0 6.39317V21.577C0 23.0487 1.19206 24.2408 2.66382 24.2408H26.1054C27.5772 24.2408 28.7693 23.0487 28.7693 21.577V6.39317C28.7693 4.92141 27.5772 3.72935 26.1054 3.72935ZM26.3718 21.577C26.3718 21.7235 26.252 21.8433 26.1054 21.8433H2.66382C2.51731 21.8433 2.39744 21.7235 2.39744 21.577V6.39317C2.39744 6.24666 2.51731 6.12679 2.66382 6.12679H8.88051L9.4499 4.53516L10.2124 2.39744H18.5535L19.316 4.53516L19.8854 6.12679H26.1054C26.252 6.12679 26.3718 6.24666 26.3718 6.39317V21.577ZM14.3846 8.25785C11.4411 8.25785 9.05699 10.642 9.05699 13.5855C9.05699 16.529 11.4411 18.9131 14.3846 18.9131C17.3282 18.9131 19.7123 16.529 19.7123 13.5855C19.7123 10.642 17.3282 8.25785 14.3846 8.25785ZM14.3846 16.7821C12.6199 16.7821 11.188 15.3503 11.188 13.5855C11.188 11.8207 12.6199 10.3889 14.3846 10.3889C16.1494 10.3889 17.5812 11.8207 17.5812 13.5855C17.5812 15.3503 16.1494 16.7821 14.3846 16.7821Z" fill="#2E2E2E"/>
</svg>
