<svg width="19" height="19" viewBox="0 0 19 19" fill="none" xmlns="http://www.w3.org/2000/svg">
<path d="M10.5807 9.25568L17.9481 1.88829C18.1136 1.69496 18.2002 1.44627 18.1903 1.19192C18.1805 0.937573 18.0751 0.696299 17.8951 0.516314C17.7151 0.336329 17.4738 0.230889 17.2195 0.221064C16.9651 0.21124 16.7164 0.297755 16.5231 0.463321L9.15572 7.83071L1.78833 0.453214C1.595 0.287649 1.34631 0.201134 1.09196 0.210959C0.837613 0.220783 0.59634 0.326223 0.416354 0.506208C0.236369 0.686193 0.130929 0.927466 0.121105 1.18181C0.11128 1.43616 0.197795 1.68485 0.363361 1.87818L7.73075 9.25568L0.353255 16.6231C0.247462 16.7137 0.161539 16.8252 0.100878 16.9505C0.0402178 17.0759 0.00612905 17.2125 0.00075309 17.3517C-0.00462287 17.4908 0.0188294 17.6296 0.0696377 17.7593C0.120446 17.889 0.197514 18.0068 0.296003 18.1053C0.394492 18.2038 0.512277 18.2808 0.641964 18.3316C0.771652 18.3825 0.910442 18.4059 1.04962 18.4005C1.1888 18.3952 1.32537 18.3611 1.45075 18.3004C1.57613 18.2397 1.68762 18.1538 1.77822 18.048L9.15572 10.6806L16.5231 18.048C16.7164 18.2136 16.9651 18.3001 17.2195 18.2903C17.4738 18.2805 17.7151 18.175 17.8951 17.995C18.0751 17.8151 18.1805 17.5738 18.1903 17.3194C18.2002 17.0651 18.1136 16.8164 17.9481 16.6231L10.5807 9.25568Z" fill="white"/>
</svg>
