<svg width="42" height="47" viewBox="0 0 42 47" fill="none" xmlns="http://www.w3.org/2000/svg">
<path d="M4.7163 44.1523C6.63329 44.1523 8.0996 43.0161 8.44872 41.2642L8.46141 41.2007H7.30614L7.2871 41.2578C6.8872 42.4639 5.99853 43.0986 4.7163 43.0986C2.89453 43.0986 1.70752 41.645 1.70752 39.417V39.4107C1.70752 37.1826 2.88818 35.7417 4.7163 35.7417C6.00487 35.7417 6.90624 36.3892 7.26171 37.5L7.30614 37.6397H8.46141L8.44872 37.5762C8.0996 35.8433 6.62059 34.688 4.7163 34.688C2.16455 34.688 0.533202 36.5288 0.533202 39.4107V39.417C0.533202 42.2988 2.17089 44.1523 4.7163 44.1523ZM9.6992 44H10.8037V34.8403H9.6992V44ZM15.0312 44.127C16.853 44.127 18.0844 42.8066 18.0844 40.6992V40.6865C18.0844 38.5791 16.8467 37.2715 15.0249 37.2715C13.2031 37.2715 11.9717 38.5855 11.9717 40.6865V40.6992C11.9717 42.8003 13.1968 44.127 15.0312 44.127ZM15.0376 43.1494C13.8696 43.1494 13.1015 42.2544 13.1015 40.6992V40.6865C13.1015 39.1441 13.876 38.249 15.0249 38.249C16.1928 38.249 16.9546 39.1377 16.9546 40.6865V40.6992C16.9546 42.248 16.1992 43.1494 15.0376 43.1494ZM21.5439 44.127C23.0166 44.127 24.1084 43.3145 24.1084 42.1592V42.1528C24.1084 41.2134 23.6259 40.6865 22.2929 40.3628L21.2456 40.1089C20.5156 39.9312 20.2173 39.6201 20.2173 39.1694V39.1631C20.2173 38.5791 20.7124 38.1919 21.5122 38.1919C22.331 38.1919 22.8198 38.6172 22.9087 39.2583L22.915 39.3027H23.9687L23.9624 39.2202C23.8798 38.1157 22.9594 37.2715 21.5122 37.2715C20.084 37.2715 19.0874 38.0776 19.0874 39.2139V39.2202C19.0874 40.1724 19.6904 40.75 20.9345 41.0483L21.9819 41.3023C22.7309 41.4863 22.9785 41.7529 22.9785 42.229V42.2354C22.9785 42.832 22.4453 43.2065 21.5503 43.2065C20.6489 43.2065 20.1601 42.8193 20.0268 42.1592L20.0141 42.0957H18.9096L18.916 42.1528C19.0493 43.3335 19.9887 44.127 21.5439 44.127ZM25.8794 36.2813C26.2666 36.2813 26.5712 35.9702 26.5712 35.5894C26.5712 35.2022 26.2666 34.8975 25.8794 34.8975C25.4985 34.8975 25.1875 35.2022 25.1875 35.5894C25.1875 35.9702 25.4985 36.2813 25.8794 36.2813ZM25.3271 44H26.4316V37.3984H25.3271V44ZM27.936 44H29.0405V40.1152C29.0405 38.9917 29.7197 38.249 30.7607 38.249C31.7763 38.249 32.2778 38.8394 32.2778 39.9121V44H33.3823V39.7153C33.3823 38.2109 32.5444 37.2715 31.0971 37.2715C30.0942 37.2715 29.4213 37.7222 29.0659 38.3379H29.0405V37.3984H27.936V44ZM37.5844 46.3486C39.3744 46.3486 40.498 45.3457 40.498 43.8159V37.3984H39.3935V38.5156H39.3681C38.9619 37.7793 38.2255 37.2715 37.2924 37.2715C35.6166 37.2715 34.4677 38.6045 34.4677 40.6548V40.6611C34.4677 42.7241 35.6039 44.0635 37.267 44.0635C38.2128 44.0635 38.9745 43.5938 39.3681 42.8638H39.3935V43.708C39.3935 44.73 38.7333 45.3711 37.5717 45.3711C36.6704 45.3711 36.0419 45.0791 35.8325 44.603L35.8071 44.5459H34.6962L34.7089 44.603C34.9247 45.5806 35.9531 46.3486 37.5844 46.3486ZM37.5082 43.0859C36.3339 43.0859 35.5976 42.1592 35.5976 40.6611V40.6548C35.5976 39.1885 36.3339 38.249 37.5082 38.249C38.6254 38.249 39.3935 39.2012 39.3935 40.6548V40.6611C39.3935 42.1274 38.6318 43.0859 37.5082 43.0859Z" fill="white"/>
<path d="M30.5763 26.3692L35.0467 30.7065C35.2613 30.9146 35.5523 31.0315 35.8558 31.0315C36.1593 31.0315 36.4503 30.9146 36.6649 30.7065C36.8795 30.4985 37 30.2162 37 29.922C37 29.6277 36.8795 29.3455 36.6649 29.1374L6.95327 0.324985C6.84702 0.221952 6.72088 0.140222 6.58206 0.0844608C6.44324 0.0286998 6.29446 1.08563e-09 6.1442 0C5.99394 -1.08563e-09 5.84515 0.0286998 5.70633 0.0844608C5.56751 0.140222 5.44138 0.221952 5.33513 0.324985C5.22888 0.428018 5.1446 0.550336 5.0871 0.684955C5.0296 0.819574 5 0.963858 5 1.10957C5 1.25528 5.0296 1.39956 5.0871 1.53418C5.1446 1.6688 5.22888 1.79112 5.33513 1.89415L9.80787 6.22931C9.01473 6.9046 8.37952 7.73641 7.94476 8.66906C7.51 9.60171 7.28573 10.6137 7.28695 11.6372V21.6107C7.28695 22.5566 7.47908 23.4933 7.85237 24.3672C8.22565 25.2411 8.77279 26.0352 9.46253 26.7041C10.8555 28.0549 12.7449 28.8138 14.7149 28.8138H24.9996C27.2212 28.8138 29.2141 27.8674 30.5763 26.3692ZM28.1422 24.0088C27.4109 24.9108 26.275 25.4893 24.9996 25.4893H14.7149C13.6541 25.4893 12.6368 25.0807 11.8867 24.3533C11.1366 23.6259 10.7152 22.6394 10.7152 21.6107V11.6372C10.7152 10.4005 11.3117 9.29894 12.2419 8.58971L19.0025 15.1456C18.7828 15.4654 18.6841 15.849 18.7232 16.2313C18.7623 16.6136 18.9368 16.971 19.2169 17.2427C19.4971 17.5143 19.8656 17.6835 20.2598 17.7214C20.6541 17.7593 21.0497 17.6636 21.3794 17.4506L28.1445 24.011L28.1422 24.0088Z" fill="white"/>
<path d="M22.2113 11.9918L24.6362 14.3411L31.2848 7.8916V13.8535C31.2848 14.2944 31.4654 14.7172 31.7868 15.0289C32.1083 15.3407 32.5443 15.5158 32.9989 15.5158C33.4535 15.5158 33.8895 15.3407 34.211 15.0289C34.5325 14.7172 34.713 14.2944 34.713 13.8535V3.88003C34.713 3.43917 34.5325 3.01637 34.211 2.70464C33.8895 2.3929 33.4535 2.21777 32.9989 2.21777H22.7141C22.2595 2.21777 21.8235 2.3929 21.5021 2.70464C21.1806 3.01637 21 3.43917 21 3.88003C21 4.32088 21.1806 4.74368 21.5021 5.05542C21.8235 5.36715 22.2595 5.54228 22.7141 5.54228H28.8621L22.2113 11.9918Z" fill="white"/>
<path d="M32.4231 21.8899L29.1479 18.7161C29.3079 18.3682 29.5862 18.0842 29.9362 17.9114C30.2863 17.7387 30.6869 17.6878 31.071 17.7673C31.4551 17.8467 31.7995 18.0516 32.0464 18.3478C32.2934 18.644 32.428 19.0134 32.4277 19.3943V21.6106C32.4277 21.7037 32.4277 21.7968 32.4231 21.8899Z" fill="white"/>
<path d="M14.427 4.43839L17.6999 7.6144C18.0586 7.45931 18.3515 7.18945 18.5296 6.84999C18.7077 6.51053 18.7602 6.12205 18.6783 5.74955C18.5964 5.37705 18.385 5.04312 18.0796 4.80365C17.7742 4.56417 17.3932 4.43366 17.0005 4.43396H14.715C14.619 4.43396 14.523 4.43396 14.427 4.43839Z" fill="white"/>
</svg>
