<svg width="48" height="44" viewBox="0 0 48 44" fill="none" xmlns="http://www.w3.org/2000/svg">
<path d="M0.88867 41H3.96728C6.69042 41 8.29003 39.3052 8.29003 36.417V36.4043C8.29003 33.5288 6.67772 31.8403 3.96728 31.8403H0.88867V41ZM2.03125 39.9717V32.8687H3.89111C5.96679 32.8687 7.12206 34.1318 7.12206 36.417V36.4297C7.12206 38.7022 5.96679 39.9717 3.89111 39.9717H2.03125ZM10.1626 33.2813C10.5498 33.2813 10.8545 32.9702 10.8545 32.5894C10.8545 32.2022 10.5498 31.8975 10.1626 31.8975C9.78172 31.8975 9.47069 32.2022 9.47069 32.5894C9.47069 32.9702 9.78172 33.2813 10.1626 33.2813ZM9.61034 41H10.7148V34.3984H9.61034V41ZM14.1489 41.127C15.0312 41.127 15.8247 40.6509 16.2119 39.9272H16.2373V41H17.3418V36.436C17.3418 35.1157 16.3642 34.2715 14.8027 34.2715C13.2475 34.2715 12.3017 35.1475 12.2065 36.2329L12.2002 36.3027H13.2666L13.2793 36.2456C13.4062 35.6553 13.9394 35.249 14.79 35.249C15.7104 35.249 16.2373 35.7378 16.2373 36.544V37.0962L14.3457 37.2041C12.8286 37.293 11.9526 37.9976 11.9526 39.1211V39.1338C11.9526 40.3335 12.8349 41.127 14.1489 41.127ZM13.0825 39.1338V39.1211C13.0825 38.5054 13.5903 38.1118 14.4726 38.061L16.2373 37.9531V38.4927C16.2373 39.4512 15.4375 40.1685 14.3965 40.1685C13.603 40.1685 13.0825 39.7686 13.0825 39.1338ZM18.8017 41H19.9062V31.8403H18.8017V41ZM23.3276 41.127C24.2099 41.127 25.0034 40.6509 25.3906 39.9272H25.416V41H26.5205V36.436C26.5205 35.1157 25.5429 34.2715 23.9814 34.2715C22.4262 34.2715 21.4804 35.1475 21.3852 36.2329L21.3789 36.3027H22.4453L22.458 36.2456C22.5849 35.6553 23.1181 35.249 23.9687 35.249C24.8891 35.249 25.416 35.7378 25.416 36.544V37.0962L23.5244 37.2041C22.0073 37.293 21.1313 37.9976 21.1313 39.1211V39.1338C21.1313 40.3335 22.0136 41.127 23.3276 41.127ZM22.2612 39.1338V39.1211C22.2612 38.5054 22.769 38.1118 23.6513 38.061L25.416 37.9531V38.4927C25.416 39.4512 24.6162 40.1685 23.5752 40.1685C22.7817 40.1685 22.2612 39.7686 22.2612 39.1338ZM30.0688 41.127C30.2846 41.127 30.5195 41.1016 30.6591 41.0825V40.1875C30.5639 40.1938 30.437 40.2129 30.3037 40.2129C29.7133 40.2129 29.4023 40.0161 29.4023 39.3115V35.3125H30.6591V34.3984H29.4023V32.6148H28.2597V34.3984H27.2949V35.3125H28.2597V39.3179C28.2597 40.5811 28.8564 41.127 30.0688 41.127ZM32.4682 33.2813C32.8554 33.2813 33.1601 32.9702 33.1601 32.5894C33.1601 32.2022 32.8554 31.8975 32.4682 31.8975C32.0874 31.8975 31.7763 32.2022 31.7763 32.5894C31.7763 32.9702 32.0874 33.2813 32.4682 33.2813ZM31.916 41H33.0205V34.3984H31.916V41ZM37.2607 41.127C39.0825 41.127 40.3139 39.8066 40.3139 37.6992V37.6865C40.3139 35.5791 39.0761 34.2715 37.2543 34.2715C35.4326 34.2715 34.2011 35.5855 34.2011 37.6865V37.6992C34.2011 39.8003 35.4262 41.127 37.2607 41.127ZM37.267 40.1494C36.0991 40.1494 35.331 39.2544 35.331 37.6992V37.6865C35.331 36.1441 36.1054 35.249 37.2543 35.249C38.4223 35.249 39.184 36.1377 39.184 37.6865V37.6992C39.184 39.248 38.4287 40.1494 37.267 40.1494ZM41.4311 41H42.5356V37.1152C42.5356 35.9917 43.2148 35.249 44.2558 35.249C45.2714 35.249 45.7729 35.8394 45.7729 36.9121V41H46.8774V36.7153C46.8774 35.2109 46.0395 34.2715 44.5922 34.2715C43.5893 34.2715 42.9164 34.7222 42.561 35.3379H42.5356V34.3984H41.4311V41Z" fill="white"/>
<path d="M33.3127 0C34.0627 0 34.6981 0.260416 35.219 0.781249C35.7398 1.30208 36.0002 1.9375 36.0002 2.6875V21.3125C36.0002 22.0625 35.7398 22.6979 35.219 23.2187C34.6981 23.7395 34.0627 24 33.3127 24H14.6877C13.9377 24 13.3023 23.7395 12.7815 23.2187C12.2607 22.6979 12.0002 22.0625 12.0002 21.3125V2.6875C12.0002 1.9375 12.2607 1.30208 12.7815 0.781249C13.3023 0.260416 13.9377 0 14.6877 0H33.3127ZM15.3127 5.99999V7.99999H18.0002V10.6875H20.0002V7.99999H22.6877V5.99999H20.0002V3.31249H18.0002V5.99999H15.3127ZM33.3127 21.3125V2.6875L14.6877 21.3125H33.3127ZM30.6877 18.6875H24.0002V16.6875H30.6877V18.6875Z" fill="white"/>
</svg>
