<svg width="41" height="43" viewBox="0 0 41 43" fill="none" xmlns="http://www.w3.org/2000/svg">
<path d="M0.88867 39.8344H6.56347V38.806H2.03125V35.6576H6.3286V34.642H2.03125V31.703H6.56347V30.6747H0.88867V39.8344ZM7.90282 39.8344H9.00731V35.7084C9.00731 34.7753 9.5659 34.1596 10.4228 34.1596C10.6894 34.1596 10.9243 34.1913 11.0132 34.223V33.1503C10.9243 33.1376 10.7593 33.1058 10.5688 33.1058C9.79442 33.1058 9.18504 33.5692 8.96922 34.2992H8.94383V33.2328H7.90282V39.8344ZM14.333 39.9613C16.1548 39.9613 17.3862 38.641 17.3862 36.5336V36.5209C17.3862 34.4135 16.1484 33.1058 14.3266 33.1058C12.5049 33.1058 11.2734 34.4198 11.2734 36.5209V36.5336C11.2734 38.6346 12.4985 39.9613 14.333 39.9613ZM14.3393 38.9838C13.1714 38.9838 12.4033 38.0887 12.4033 36.5336V36.5209C12.4033 34.9784 13.1777 34.0834 14.3266 34.0834C15.4946 34.0834 16.2563 34.9721 16.2563 36.5209V36.5336C16.2563 38.0824 15.501 38.9838 14.3393 38.9838ZM20.8457 39.9613C22.3183 39.9613 23.4101 39.1488 23.4101 37.9935V37.9872C23.4101 37.0477 22.9277 36.5209 21.5947 36.1971L20.5473 35.9432C19.8174 35.7655 19.519 35.4545 19.519 35.0038V34.9974C19.519 34.4135 20.0141 34.0263 20.8139 34.0263C21.6328 34.0263 22.1215 34.4515 22.2104 35.0927L22.2168 35.1371H23.2705L23.2641 35.0546C23.1816 33.9501 22.2612 33.1058 20.8139 33.1058C19.3857 33.1058 18.3891 33.912 18.3891 35.0482V35.0546C18.3891 36.0067 18.9922 36.5844 20.2363 36.8827L21.2837 37.1366C22.0327 37.3207 22.2802 37.5873 22.2802 38.0634V38.0697C22.2802 38.6664 21.747 39.0409 20.852 39.0409C19.9507 39.0409 19.4619 38.6537 19.3286 37.9935L19.3159 37.9301H18.2114L18.2177 37.9872C18.351 39.1678 19.2905 39.9613 20.8457 39.9613ZM25.1811 32.1156C25.5683 32.1156 25.873 31.8046 25.873 31.4237C25.873 31.0365 25.5683 30.7318 25.1811 30.7318C24.8003 30.7318 24.4892 31.0365 24.4892 31.4237C24.4892 31.8046 24.8003 32.1156 25.1811 32.1156ZM24.6289 39.8344H25.7334V33.2328H24.6289V39.8344ZM29.9736 39.9613C31.7954 39.9613 33.0268 38.641 33.0268 36.5336V36.5209C33.0268 34.4135 31.789 33.1058 29.9672 33.1058C28.1455 33.1058 26.914 34.4198 26.914 36.5209V36.5336C26.914 38.6346 28.1391 39.9613 29.9736 39.9613ZM29.9799 38.9838C28.812 38.9838 28.0439 38.0887 28.0439 36.5336V36.5209C28.0439 34.9784 28.8183 34.0834 29.9672 34.0834C31.1352 34.0834 31.8969 34.9721 31.8969 36.5209V36.5336C31.8969 38.0824 31.1416 38.9838 29.9799 38.9838ZM34.144 39.8344H35.2485V35.9496C35.2485 34.8261 35.9277 34.0834 36.9687 34.0834C37.9843 34.0834 38.4858 34.6737 38.4858 35.7465V39.8344H39.5903V35.5497C39.5903 34.0453 38.7524 33.1058 37.3051 33.1058C36.3022 33.1058 35.6293 33.5565 35.2739 34.1723H35.2485V33.2328H34.144V39.8344Z" fill="white"/>
<path d="M14.3459 2.0699L7.21623 10.6562L14.3459 19.2424L11.816 21.3123L2.99976 10.6562L11.816 0L14.3459 2.0699ZM13.1193 12.2661V9.04625H16.4158V12.2661H13.1193ZM29.4485 9.04625V12.2661H26.2287V9.04625H29.4485ZM19.6357 12.2661V9.04625H22.9322V12.2661H19.6357ZM30.7518 0L39.5681 10.6562L30.7518 21.3123L28.2219 19.2424L35.3516 10.6562L28.2219 2.0699L30.7518 0Z" fill="white"/>
</svg>
