<svg width="51" height="44" viewBox="0 0 51 44" fill="none" xmlns="http://www.w3.org/2000/svg">
<path d="M0.88867 41H6.56347V39.9717H2.03125V36.8232H6.3286V35.8076H2.03125V32.8687H6.56347V31.8403H0.88867V41ZM7.38866 41H8.61376L10.207 38.4863H10.2324L11.813 41H13.0381L10.8418 37.6548L13.0698 34.3984H11.8384L10.2705 36.874H10.2451L8.65819 34.3984H7.42675L9.63573 37.6992L7.38866 41ZM13.9966 43.2217H15.1011V39.8955H15.1264C15.539 40.6572 16.3071 41.127 17.2402 41.127C18.8969 41.127 20.0268 39.7876 20.0268 37.7056V37.6992C20.0268 35.6172 18.9096 34.2715 17.2212 34.2715C16.2754 34.2715 15.539 34.7476 15.1264 35.5156H15.1011V34.3984H13.9966V43.2217ZM17.0053 40.1494C15.8945 40.1494 15.0947 39.1782 15.0947 37.7056V37.6992C15.0947 36.2202 15.8882 35.249 17.0053 35.249C18.1733 35.249 18.8969 36.1821 18.8969 37.6992V37.7056C18.8969 39.21 18.1733 40.1494 17.0053 40.1494ZM23.8798 41.127C25.7016 41.127 26.9331 39.8066 26.9331 37.6992V37.6865C26.9331 35.5791 25.6953 34.2715 23.8735 34.2715C22.0517 34.2715 20.8203 35.5855 20.8203 37.6865V37.6992C20.8203 39.8003 22.0454 41.127 23.8798 41.127ZM23.8862 40.1494C22.7182 40.1494 21.9502 39.2544 21.9502 37.6992V37.6865C21.9502 36.1441 22.7246 35.249 23.8735 35.249C25.0415 35.249 25.8032 36.1377 25.8032 37.6865V37.6992C25.8032 39.248 25.0478 40.1494 23.8862 40.1494ZM30.3925 41.127C31.8652 41.127 32.957 40.3145 32.957 39.1592V39.1528C32.957 38.2134 32.4746 37.6865 31.1416 37.3628L30.0942 37.1089C29.3642 36.9312 29.0659 36.6201 29.0659 36.1694V36.1631C29.0659 35.5791 29.561 35.1919 30.3608 35.1919C31.1796 35.1919 31.6684 35.6172 31.7573 36.2583L31.7636 36.3027H32.8173L32.811 36.2202C32.7285 35.1157 31.8081 34.2715 30.3608 34.2715C28.9326 34.2715 27.936 35.0776 27.936 36.2139V36.2202C27.936 37.1724 28.539 37.75 29.7832 38.0483L30.8305 38.3023C31.5795 38.4863 31.8271 38.7529 31.8271 39.229V39.2354C31.8271 39.832 31.2939 40.2065 30.3989 40.2065C29.4975 40.2065 29.0087 39.8193 28.8754 39.1592L28.8627 39.0957H27.7583L27.7646 39.1528C27.8979 40.3335 28.8374 41.127 30.3925 41.127ZM36.3593 41.127C37.3622 41.127 38.0351 40.6763 38.3906 40.0605H38.416V41H39.5204V34.3984H38.416V38.2832C38.416 39.4067 37.7368 40.1494 36.6957 40.1494C35.6801 40.1494 35.1787 39.5591 35.1787 38.4863V34.3984H34.0742V38.6831C34.0742 40.1875 34.9121 41.127 36.3593 41.127ZM40.9614 41H42.0659V36.874C42.0659 35.9409 42.6244 35.3252 43.4814 35.3252C43.748 35.3252 43.9828 35.3569 44.0717 35.3887V34.3159C43.9828 34.3032 43.8178 34.2715 43.6274 34.2715C42.853 34.2715 42.2436 34.7349 42.0278 35.4649H42.0024V34.3984H40.9614V41ZM47.3725 41.127C48.8134 41.127 49.8925 40.2637 50.1083 39.1719L50.121 39.1084H49.0356L49.0165 39.1655C48.8261 39.7305 48.2358 40.1494 47.3979 40.1494C46.2236 40.1494 45.4745 39.356 45.4491 37.9976H50.2035V37.5913C50.2035 35.6108 49.1054 34.2715 47.3027 34.2715C45.4999 34.2715 44.332 35.6743 44.332 37.7183V37.7246C44.332 39.8003 45.4745 41.127 47.3725 41.127ZM47.2963 35.249C48.2612 35.249 48.9721 35.8521 49.08 37.1343H45.4682C45.5888 35.9028 46.3378 35.249 47.2963 35.249Z" fill="white"/>
<path d="M25.4995 15C26.1625 15 26.7984 14.7366 27.2673 14.2677C27.7361 13.7989 27.9995 13.163 27.9995 12.5C27.9995 11.8369 27.7361 11.2011 27.2673 10.7322C26.7984 10.2634 26.1625 9.99998 25.4995 9.99998C24.8365 9.99998 24.2006 10.2634 23.7317 10.7322C23.2629 11.2011 22.9995 11.8369 22.9995 12.5C22.9995 13.163 23.2629 13.7989 23.7317 14.2677C24.2006 14.7366 24.8365 15 25.4995 15ZM25.4995 17.5C24.1734 17.5 22.9016 16.9732 21.964 16.0355C21.0263 15.0978 20.4995 13.8261 20.4995 12.5C20.4995 11.1739 21.0263 9.90213 21.964 8.96445C22.9016 8.02677 24.1734 7.49999 25.4995 7.49999C26.8256 7.49999 28.0973 8.02677 29.035 8.96445C29.9727 9.90213 30.4995 11.1739 30.4995 12.5C30.4995 13.8261 29.9727 15.0978 29.035 16.0355C28.0973 16.9732 26.8256 17.5 25.4995 17.5ZM32.9995 11.25H36.7495C37.081 11.25 37.3989 11.3817 37.6334 11.6161C37.8678 11.8505 37.9995 12.1685 37.9995 12.5C37.9995 12.8315 37.8678 13.1494 37.6334 13.3839C37.3989 13.6183 37.081 13.75 36.7495 13.75H32.9995C32.668 13.75 32.35 13.6183 32.1156 13.3839C31.8812 13.1494 31.7495 12.8315 31.7495 12.5C31.7495 12.1685 31.8812 11.8505 32.1156 11.6161C32.35 11.3817 32.668 11.25 32.9995 11.25ZM25.4995 18.75C25.831 18.75 26.149 18.8817 26.3834 19.1161C26.6178 19.3505 26.7495 19.6684 26.7495 20V23.75C26.7495 24.0815 26.6178 24.3994 26.3834 24.6338C26.149 24.8683 25.831 25 25.4995 25C25.168 25 24.85 24.8683 24.6156 24.6338C24.3812 24.3994 24.2495 24.0815 24.2495 23.75V20C24.2495 19.6684 24.3812 19.3505 24.6156 19.1161C24.85 18.8817 25.168 18.75 25.4995 18.75ZM25.4995 0C25.831 0 26.149 0.131696 26.3834 0.366116C26.6178 0.600536 26.7495 0.918478 26.7495 1.25V4.99999C26.7495 5.33151 26.6178 5.64945 26.3834 5.88387C26.149 6.11829 25.831 6.24999 25.4995 6.24999C25.168 6.24999 24.85 6.11829 24.6156 5.88387C24.3812 5.64945 24.2495 5.33151 24.2495 4.99999V1.25C24.2495 0.918478 24.3812 0.600536 24.6156 0.366116C24.85 0.131696 25.168 0 25.4995 0ZM14.2495 11.25H17.9995C18.331 11.25 18.649 11.3817 18.8834 11.6161C19.1178 11.8505 19.2495 12.1685 19.2495 12.5C19.2495 12.8315 19.1178 13.1494 18.8834 13.3839C18.649 13.6183 18.331 13.75 17.9995 13.75H14.2495C13.918 13.75 13.6 13.6183 13.3656 13.3839C13.1312 13.1494 12.9995 12.8315 12.9995 12.5C12.9995 12.1685 13.1312 11.8505 13.3656 11.6161C13.6 11.3817 13.918 11.25 14.2495 11.25ZM31.687 16.92L34.3382 19.57C34.4544 19.686 34.5465 19.8238 34.6094 19.9755C34.6723 20.1271 34.7047 20.2897 34.7047 20.4539C34.7048 20.6181 34.6725 20.7807 34.6097 20.9324C34.5469 21.0841 34.4549 21.222 34.3389 21.3381C34.2228 21.4542 34.085 21.5464 33.9333 21.6093C33.7817 21.6721 33.6191 21.7045 33.4549 21.7046C33.2907 21.7046 33.1281 21.6724 32.9764 21.6096C32.8247 21.5468 32.6869 21.4548 32.5707 21.3387L29.9195 18.6875C29.6918 18.4517 29.5658 18.136 29.5686 17.8082C29.5715 17.4805 29.7029 17.167 29.9347 16.9352C30.1665 16.7034 30.48 16.572 30.8077 16.5691C31.1355 16.5663 31.4512 16.6923 31.687 16.92ZM21.0795 16.92C21.3138 17.1544 21.4455 17.4723 21.4455 17.8037C21.4455 18.1352 21.3138 18.4531 21.0795 18.6875L18.4295 21.3387C18.3134 21.4548 18.1757 21.547 18.024 21.6099C17.8723 21.6728 17.7098 21.7052 17.5456 21.7052C17.3814 21.7053 17.2188 21.673 17.0671 21.6102C16.9154 21.5474 16.7775 21.4554 16.6614 21.3393C16.5452 21.2233 16.4531 21.0855 16.3902 20.9338C16.3273 20.7822 16.2949 20.6196 16.2949 20.4554C16.2948 20.2912 16.3271 20.1286 16.3899 19.9769C16.4527 19.8252 16.5447 19.6874 16.6608 19.5712L19.312 16.92C19.5464 16.6856 19.8643 16.554 20.1957 16.554C20.5272 16.554 20.8451 16.6856 21.0795 16.92ZM34.3382 3.66124C34.5726 3.89565 34.7042 4.21354 34.7042 4.54499C34.7042 4.87645 34.5726 5.19433 34.3382 5.42874L31.687 8.07999C31.4512 8.30768 31.1355 8.43368 30.8077 8.43083C30.48 8.42798 30.1665 8.29652 29.9347 8.06476C29.7029 7.833 29.5715 7.51948 29.5686 7.19174C29.5658 6.86399 29.6918 6.54824 29.9195 6.31249L32.5695 3.66124C32.6856 3.54502 32.8234 3.45282 32.9752 3.38992C33.1269 3.32701 33.2896 3.29464 33.4539 3.29464C33.6181 3.29464 33.7808 3.32701 33.9325 3.38992C34.0843 3.45282 34.2221 3.54502 34.3382 3.66124ZM18.4283 3.66124L21.0795 6.31249C21.1989 6.4278 21.2941 6.56573 21.3596 6.71823C21.4251 6.87074 21.4596 7.03476 21.4611 7.20074C21.4625 7.36671 21.4309 7.53131 21.368 7.68493C21.3052 7.83855 21.2124 7.97811 21.095 8.09548C20.9776 8.21284 20.8381 8.30566 20.6844 8.36851C20.5308 8.43136 20.3662 8.46299 20.2002 8.46155C20.0343 8.46011 19.8702 8.42562 19.7177 8.36011C19.5652 8.2946 19.4273 8.19937 19.312 8.07999L16.662 5.42999C16.4275 5.19561 16.2956 4.87765 16.2955 4.54606C16.2954 4.21447 16.427 3.89642 16.6614 3.66187C16.8958 3.42732 17.2137 3.29548 17.5453 3.29537C17.8769 3.29525 18.195 3.42686 18.4295 3.66124H18.4283Z" fill="white"/>
</svg>
