<?xml version="1.0" encoding="utf-8"?>
<!-- Generator: Adobe Illustrator 24.2.3, SVG Export Plug-In . SVG Version: 6.00 Build 0)  -->
<svg version="1.1" id="Layer_1" xmlns="http://www.w3.org/2000/svg" xmlns:xlink="http://www.w3.org/1999/xlink" x="0px" y="0px"
	 viewBox="0 0 24 24" style="enable-background:new 0 0 24 24;" xml:space="preserve">
<style type="text/css">
	.st0{fill:#FFC542;}
</style>
<path class="st0" d="M12,0c1.6,0,3.1,0.3,4.6,0.9c1.5,0.6,2.8,1.5,3.9,2.6s2,2.4,2.6,3.9c0.6,1.5,0.9,3,0.9,4.6s-0.3,3.1-0.9,4.6
	c-0.6,1.5-1.5,2.8-2.6,3.9s-2.4,2-3.9,2.6c-1.5,0.6-3,0.9-4.6,0.9c-3.2,0-6.2-1.3-8.5-3.5C1.3,18.2,0,15.2,0,12s1.3-6.2,3.5-8.5
	S8.8,0,12,0z M12,2C9.3,2,6.8,3.1,4.9,4.9C3.1,6.8,2,9.3,2,12c0,2.7,1.1,5.2,2.9,7.1C6.8,20.9,9.3,22,12,22c2.7,0,5.2-1.1,7.1-2.9
	c1.9-1.9,2.9-4.4,2.9-7.1c0-2.7-1.1-5.2-2.9-7.1C17.2,3.1,14.7,2,12,2z M12,17c0.4,0,0.8,0.2,1.1,0.4c0.3,0.3,0.4,0.7,0.4,1.1
	s-0.2,0.8-0.4,1.1C12.8,19.8,12.4,20,12,20s-0.8-0.2-1.1-0.4c-0.3-0.3-0.4-0.7-0.4-1.1s0.2-0.8,0.4-1.1C11.2,17.2,11.6,17,12,17z
	 M12,5c1.1,0,2.1,0.4,2.8,1.2C15.6,6.9,16,7.9,16,9c0,1.5-0.4,2.3-1.5,3.4L14,13c-0.8,0.8-1,1.2-1,2c0,0.3-0.1,0.5-0.3,0.7
	S12.3,16,12,16s-0.5-0.1-0.7-0.3S11,15.3,11,15c0-1.5,0.4-2.3,1.5-3.4L13,11c0.8-0.8,1-1.2,1-2c0-0.5-0.2-1-0.6-1.4
	C13,7.2,12.5,7,12,7s-1,0.2-1.4,0.6C10.2,8,10,8.5,10,9c0,0.3-0.1,0.5-0.3,0.7C9.5,9.9,9.3,10,9,10S8.5,9.9,8.3,9.7
	C8.1,9.5,8,9.3,8,9c0-1.1,0.4-2.1,1.2-2.8C9.9,5.4,10.9,5,12,5z"/>
</svg>
