<svg width="36" height="44" viewBox="0 0 36 44" fill="none" xmlns="http://www.w3.org/2000/svg">
<path d="M0.88867 41H1.95507V33.9224H1.99316L4.91943 41H5.88427L8.81053 33.9224H8.84862V41H9.91502V31.8403H8.59471L5.42089 39.5591H5.3828L2.20898 31.8403H0.88867V41ZM14.2568 41.127C16.0786 41.127 17.31 39.8066 17.31 37.6992V37.6865C17.31 35.5791 16.0722 34.2715 14.2505 34.2715C12.4287 34.2715 11.1972 35.5855 11.1972 37.6865V37.6992C11.1972 39.8003 12.4223 41.127 14.2568 41.127ZM14.2632 40.1494C13.0952 40.1494 12.3271 39.2544 12.3271 37.6992V37.6865C12.3271 36.1441 13.1015 35.249 14.2505 35.249C15.4184 35.249 16.1801 36.1377 16.1801 37.6865V37.6992C16.1801 39.248 15.4248 40.1494 14.2632 40.1494ZM18.4272 41H19.5317V36.874C19.5317 35.9409 20.0903 35.3252 20.9472 35.3252C21.2138 35.3252 21.4487 35.3569 21.5376 35.3887V34.3159C21.4487 34.3032 21.2837 34.2715 21.0932 34.2715C20.3188 34.2715 19.7094 34.7349 19.4936 35.4649H19.4682V34.3984H18.4272V41ZM22.4389 43.2217H23.5434V39.8955H23.5688C23.9814 40.6572 24.7495 41.127 25.6826 41.127C27.3393 41.127 28.4692 39.7876 28.4692 37.7056V37.6992C28.4692 35.6172 27.352 34.2715 25.6635 34.2715C24.7177 34.2715 23.9814 34.7476 23.5688 35.5156H23.5434V34.3984H22.4389V43.2217ZM25.4477 40.1494C24.3369 40.1494 23.5371 39.1782 23.5371 37.7056V37.6992C23.5371 36.2202 24.3305 35.249 25.4477 35.249C26.6157 35.249 27.3393 36.1821 27.3393 37.6992V37.7056C27.3393 39.21 26.6157 40.1494 25.4477 40.1494ZM29.6435 41H30.748V37.147C30.748 36.0234 31.4272 35.249 32.4492 35.249C33.4775 35.249 34.0869 35.9536 34.0869 37.147V41H35.1914V36.9565C35.1914 35.3569 34.2329 34.2715 32.83 34.2715C31.8461 34.2715 31.1289 34.7095 30.7734 35.4522H30.748V31.8403H29.6435V41Z" fill="white"/>
<path d="M6.00049 0H13.2005V2.4H22.8005V0H30.0004V7.19999H27.6005V16.8H30.0004V24H22.8005V21.6H13.2005V24H6.00049V16.8H8.40048V7.19999H6.00049V0ZM22.8005 7.19999V4.79999H13.2005V7.19999H10.8005V16.8H13.2005V19.2H22.8005V16.8H25.2005V7.19999H22.8005ZM8.40048 2.4V4.79999H10.8005V2.4H8.40048ZM25.2005 2.4V4.79999H27.6005V2.4H25.2005ZM8.40048 19.2V21.6H10.8005V19.2H8.40048ZM25.2005 19.2V21.6H27.6005V19.2H25.2005Z" fill="white"/>
</svg>
