<svg width="47" height="45" viewBox="0 0 47 45" fill="none" xmlns="http://www.w3.org/2000/svg">
<path d="M4.76073 42.1523C7.35692 42.1523 8.97557 40.3306 8.97557 37.4233V37.4107C8.97557 34.5098 7.35057 32.688 4.76073 32.688C2.16455 32.688 0.533202 34.5098 0.533202 37.4107V37.4233C0.533202 40.3306 2.1582 42.1523 4.76073 42.1523ZM4.76073 41.0986C2.88183 41.0986 1.70117 39.6768 1.70117 37.4233V37.4107C1.70117 35.1572 2.88818 33.7417 4.76073 33.7417C6.62694 33.7417 7.8076 35.1636 7.8076 37.4107V37.4233C7.8076 39.6577 6.64599 41.0986 4.76073 41.0986ZM10.2261 44.2217H11.3305V40.8955H11.3559C11.7685 41.6572 12.5366 42.127 13.4697 42.127C15.1264 42.127 16.2563 40.7876 16.2563 38.7056V38.6992C16.2563 36.6172 15.1391 35.2715 13.4507 35.2715C12.5049 35.2715 11.7685 35.7476 11.3559 36.5156H11.3305V35.3984H10.2261V44.2217ZM13.2348 41.1494C12.124 41.1494 11.3242 40.1782 11.3242 38.7056V38.6992C11.3242 37.2202 12.1177 36.249 13.2348 36.249C14.4028 36.249 15.1264 37.1821 15.1264 38.6992V38.7056C15.1264 40.21 14.4028 41.1494 13.2348 41.1494ZM20.0903 42.127C21.5312 42.127 22.6103 41.2637 22.8261 40.1719L22.8388 40.1084H21.7534L21.7343 40.1655C21.5439 40.7305 20.9536 41.1494 20.1157 41.1494C18.9414 41.1494 18.1924 40.356 18.167 38.9976H22.9213V38.5913C22.9213 36.6108 21.8232 35.2715 20.0205 35.2715C18.2177 35.2715 17.0498 36.6743 17.0498 38.7183V38.7246C17.0498 40.8003 18.1924 42.127 20.0903 42.127ZM20.0141 36.249C20.979 36.249 21.6899 36.8521 21.7978 38.1343H18.186C18.3066 36.9028 19.0556 36.249 20.0141 36.249ZM24.0385 42H25.143V38.1152C25.143 36.9917 25.8222 36.249 26.8632 36.249C27.8789 36.249 28.3803 36.8394 28.3803 37.9121V42H29.4848V37.7153C29.4848 36.2109 28.6469 35.2715 27.1997 35.2715C26.1967 35.2715 25.5239 35.7222 25.1684 36.3379H25.143V35.3984H24.0385V42ZM31.5161 34.2813C31.9033 34.2813 32.208 33.9702 32.208 33.5894C32.208 33.2022 31.9033 32.8975 31.5161 32.8975C31.1352 32.8975 30.8242 33.2022 30.8242 33.5894C30.8242 33.9702 31.1352 34.2813 31.5161 34.2813ZM30.9638 42H32.0683V35.3984H30.9638V42ZM33.5727 42H34.6772V38.1152C34.6772 36.9917 35.3564 36.249 36.3974 36.249C37.413 36.249 37.9145 36.8394 37.9145 37.9121V42H39.019V37.7153C39.019 36.2109 38.1811 35.2715 36.7338 35.2715C35.7309 35.2715 35.058 35.7222 34.7026 36.3379H34.6772V35.3984H33.5727V42ZM43.2211 44.3486C45.0112 44.3486 46.1347 43.3457 46.1347 41.8159V35.3984H45.0302V36.5156H45.0048C44.5986 35.7793 43.8622 35.2715 42.9291 35.2715C41.2534 35.2715 40.1044 36.6045 40.1044 38.6548V38.6611C40.1044 40.7241 41.2407 42.0635 42.9037 42.0635C43.8495 42.0635 44.6113 41.5938 45.0048 40.8638H45.0302V41.708C45.0302 42.73 44.37 43.3711 43.2084 43.3711C42.3071 43.3711 41.6786 43.0791 41.4692 42.603L41.4438 42.5459H40.3329L40.3456 42.603C40.5615 43.5806 41.5898 44.3486 43.2211 44.3486ZM43.1449 41.0859C41.9706 41.0859 41.2343 40.1592 41.2343 38.6611V38.6548C41.2343 37.1885 41.9706 36.249 43.1449 36.249C44.2621 36.249 45.0302 37.2012 45.0302 38.6548V38.6611C45.0302 40.1274 44.2685 41.0859 43.1449 41.0859Z" fill="white"/>
<path d="M23.5001 1.6875C23.5001 1.23995 23.6779 0.810725 23.9944 0.494257C24.3109 0.177789 24.7401 0 25.1876 0H35.3126C35.7602 0 36.1894 0.177789 36.5059 0.494257C36.8224 0.810725 37.0001 1.23995 37.0001 1.6875V11.8125C37.0001 12.2601 36.8224 12.6893 36.5059 13.0057C36.1894 13.3222 35.7602 13.5 35.3126 13.5C34.8651 13.5 34.4359 13.3222 34.1194 13.0057C33.8029 12.6893 33.6251 12.2601 33.6251 11.8125V5.76L24.1301 15.255C23.8102 15.5531 23.3871 15.7154 22.95 15.7076C22.5128 15.6999 22.0957 15.5228 21.7865 15.2136C21.4773 14.9045 21.3002 14.4874 21.2925 14.0502C21.2848 13.613 21.4471 13.1899 21.7451 12.87L31.2401 3.375H25.1876C24.7401 3.375 24.3109 3.19721 23.9944 2.88074C23.6779 2.56428 23.5001 2.13505 23.5001 1.6875V1.6875Z" fill="white"/>
<path d="M10 9.5625C10 7.6231 10.7704 5.76314 12.1418 4.39178C13.5131 3.02042 15.3731 2.25 17.3125 2.25H19.5625C20.0101 2.25 20.4393 2.42779 20.7557 2.74426C21.0722 3.06072 21.25 3.48995 21.25 3.9375C21.25 4.38505 21.0722 4.81428 20.7557 5.13074C20.4393 5.44721 20.0101 5.625 19.5625 5.625H17.3125C16.2682 5.625 15.2667 6.03984 14.5283 6.77827C13.7898 7.51669 13.375 8.51821 13.375 9.5625V19.6875C13.375 21.861 15.139 23.625 17.3125 23.625H27.4375C28.4818 23.625 29.4833 23.2102 30.2217 22.4717C30.9602 21.7333 31.375 20.7318 31.375 19.6875V17.4375C31.375 16.9899 31.5528 16.5607 31.8693 16.2443C32.1857 15.9278 32.6149 15.75 33.0625 15.75C33.5101 15.75 33.9393 15.9278 34.2557 16.2443C34.5722 16.5607 34.75 16.9899 34.75 17.4375V19.6875C34.75 20.6478 34.5609 21.5987 34.1934 22.4859C33.8259 23.3731 33.2872 24.1792 32.6082 24.8582C31.9292 25.5372 31.1231 26.0759 30.2359 26.4434C29.3487 26.8109 28.3978 27 27.4375 27H17.3125C15.3731 27 13.5131 26.2296 12.1418 24.8582C10.7704 23.4869 10 21.6269 10 19.6875V9.5625Z" fill="white"/>
</svg>
