<svg width="27" height="23" viewBox="0 0 27 23" fill="none" xmlns="http://www.w3.org/2000/svg">
<path d="M17.5173 11.2611C17.5173 9.88478 16.3912 8.75867 15.0149 8.75867C13.6385 8.75867 12.5124 9.88478 12.5124 11.2611C12.5124 12.6375 13.6385 13.7636 15.0149 13.7636C16.3912 13.7636 17.5173 12.6375 17.5173 11.2611ZM15.0149 0C12.0282 0 9.1639 1.18644 7.05203 3.29831C4.94015 5.41019 3.75372 8.2745 3.75372 11.2611H0L5.00495 16.2661L10.0099 11.2611H6.25619C6.25619 6.41885 10.1726 2.50248 15.0149 2.50248C19.8572 2.50248 23.7735 6.41885 23.7735 11.2611C23.7752 12.87 23.3335 14.4481 22.4968 15.8223C21.66 17.1964 20.4608 18.3134 19.0307 19.0504C17.6006 19.7874 15.9951 20.116 14.3904 20.0001C12.7858 19.8841 11.2441 19.3281 9.93483 18.3932L8.15807 20.195C9.57779 21.2844 11.2367 22.0199 12.9973 22.3403C14.758 22.6607 16.5696 22.5569 18.2821 22.0376C19.9946 21.5182 21.5587 20.5981 22.8447 19.3537C24.1307 18.1092 25.1017 16.5762 25.677 14.8816C26.2523 13.1871 26.4156 11.3798 26.1531 9.60964C25.8907 7.83943 25.2101 6.15727 24.1679 4.70255C23.1256 3.24783 21.7517 2.06245 20.1599 1.24465C18.5682 0.426853 16.8044 0.00018145 15.0149 0Z" fill="white"/>
</svg>
