<svg width="55" height="44" viewBox="0 0 55 44" fill="none" xmlns="http://www.w3.org/2000/svg">
<path d="M3.20556 41H4.34814V32.8687H7.23632V31.8403H0.317382V32.8687H3.20556V41ZM8.32811 41H9.4326V37.147C9.4326 36.0234 10.1118 35.249 11.1338 35.249C12.1621 35.249 12.7715 35.9536 12.7715 37.147V41H13.876V36.9565C13.876 35.3569 12.9175 34.2715 11.5146 34.2715C10.5307 34.2715 9.81346 34.7095 9.45799 35.4522H9.4326V31.8403H8.32811V41ZM15.2788 41H16.3833V36.874C16.3833 35.9409 16.9419 35.3252 17.7988 35.3252C18.0654 35.3252 18.3003 35.3569 18.3891 35.3887V34.3159C18.3003 34.3032 18.1352 34.2715 17.9448 34.2715C17.1704 34.2715 16.561 34.7349 16.3452 35.4649H16.3198V34.3984H15.2788V41ZM21.6899 41.127C23.1308 41.127 24.2099 40.2637 24.4257 39.1719L24.4384 39.1084H23.353L23.3339 39.1655C23.1435 39.7305 22.5532 40.1494 21.7153 40.1494C20.541 40.1494 19.792 39.356 19.7666 37.9976H24.521V37.5913C24.521 35.6108 23.4228 34.2715 21.6201 34.2715C19.8173 34.2715 18.6494 35.6743 18.6494 37.7183V37.7246C18.6494 39.8003 19.792 41.127 21.6899 41.127ZM21.6137 35.249C22.5786 35.249 23.2895 35.8521 23.3974 37.1343H19.7856C19.9062 35.9028 20.6552 35.249 21.6137 35.249ZM27.9804 41.127C29.4531 41.127 30.5449 40.3145 30.5449 39.1592V39.1528C30.5449 38.2134 30.0625 37.6865 28.7294 37.3628L27.6821 37.1089C26.9521 36.9312 26.6538 36.6201 26.6538 36.1694V36.1631C26.6538 35.5791 27.1489 35.1919 27.9487 35.1919C28.7675 35.1919 29.2563 35.6172 29.3452 36.2583L29.3515 36.3027H30.4052L30.3989 36.2202C30.3164 35.1157 29.3959 34.2715 27.9487 34.2715C26.5205 34.2715 25.5239 35.0776 25.5239 36.2139V36.2202C25.5239 37.1724 26.1269 37.75 27.371 38.0483L28.4184 38.3023C29.1674 38.4863 29.415 38.7529 29.415 39.229V39.2354C29.415 39.832 28.8818 40.2065 27.9868 40.2065C27.0854 40.2065 26.5966 39.8193 26.4633 39.1592L26.4506 39.0957H25.3462L25.3525 39.1528C25.4858 40.3335 26.4253 41.127 27.9804 41.127ZM31.7509 41H32.8554V37.147C32.8554 36.0234 33.5346 35.249 34.5566 35.249C35.5849 35.249 36.1943 35.9536 36.1943 37.147V41H37.2988V36.9565C37.2988 35.3569 36.3403 34.2715 34.9374 34.2715C33.9536 34.2715 33.2363 34.7095 32.8808 35.4522H32.8554V31.8403H31.7509V41ZM41.4374 41.127C43.2592 41.127 44.4907 39.8066 44.4907 37.6992V37.6865C44.4907 35.5791 43.2529 34.2715 41.4311 34.2715C39.6093 34.2715 38.3779 35.5855 38.3779 37.6865V37.6992C38.3779 39.8003 39.603 41.127 41.4374 41.127ZM41.4438 40.1494C40.2758 40.1494 39.5077 39.2544 39.5077 37.6992V37.6865C39.5077 36.1441 40.2822 35.249 41.4311 35.249C42.5991 35.249 43.3608 36.1377 43.3608 37.6865V37.6992C43.3608 39.248 42.6054 40.1494 41.4438 40.1494ZM45.665 41H46.7695V31.8403H45.665V41ZM50.7431 41.127C51.6889 41.127 52.4252 40.6509 52.8378 39.8828H52.8632V41H53.9677V31.8403H52.8632V35.5029H52.8378C52.4252 34.7412 51.6571 34.2715 50.724 34.2715C49.0673 34.2715 47.9374 35.6108 47.9374 37.6929V37.6992C47.9374 39.7813 49.0546 41.127 50.7431 41.127ZM50.9589 40.1494C49.7909 40.1494 49.0673 39.2163 49.0673 37.6992V37.6929C49.0673 36.1885 49.7909 35.249 50.9589 35.249C52.0697 35.249 52.8695 36.2202 52.8695 37.6929V37.6992C52.8695 39.1782 52.0761 40.1494 50.9589 40.1494Z" fill="white"/>
<path d="M27.5 0C20.6075 0 15 5.60749 15 12.5C15 19.3925 20.6075 25 27.5 25C34.3925 25 40 19.3925 40 12.5C40 5.60749 34.3925 0 27.5 0ZM26.25 11.25H17.5862C17.6934 10.392 17.9119 9.55156 18.2362 8.74998H26.25V11.25ZM26.25 16.25H18.2362C17.9119 15.4484 17.6934 14.608 17.5862 13.75H26.25V16.25ZM26.25 2.58625V6.24999H19.7062C21.3293 4.22568 23.6759 2.91185 26.25 2.58625ZM19.7062 18.75H26.25V22.4137C23.6759 22.0881 21.3293 20.7743 19.7062 18.75ZM28.75 22.4137V2.58625C33.6737 3.20499 37.5 7.40874 37.5 12.5C37.5 17.5912 33.6737 21.795 28.75 22.4137Z" fill="white"/>
</svg>
