<svg width="55" height="45" viewBox="0 0 55 45" fill="none" xmlns="http://www.w3.org/2000/svg">
<path d="M3.20556 42H4.34814V33.8687H7.23632V32.8403H0.317382V33.8687H3.20556V42ZM8.32811 42H9.4326V38.147C9.4326 37.0234 10.1118 36.249 11.1338 36.249C12.1621 36.249 12.7715 36.9536 12.7715 38.147V42H13.876V37.9565C13.876 36.3569 12.9175 35.2715 11.5146 35.2715C10.5307 35.2715 9.81346 35.7095 9.45799 36.4522H9.4326V32.8403H8.32811V42ZM15.2788 42H16.3833V37.874C16.3833 36.9409 16.9419 36.3252 17.7988 36.3252C18.0654 36.3252 18.3003 36.3569 18.3891 36.3887V35.3159C18.3003 35.3032 18.1352 35.2715 17.9448 35.2715C17.1704 35.2715 16.561 35.7349 16.3452 36.4649H16.3198V35.3984H15.2788V42ZM21.6899 42.127C23.1308 42.127 24.2099 41.2637 24.4257 40.1719L24.4384 40.1084H23.353L23.3339 40.1655C23.1435 40.7305 22.5532 41.1494 21.7153 41.1494C20.541 41.1494 19.792 40.356 19.7666 38.9976H24.521V38.5913C24.521 36.6108 23.4228 35.2715 21.6201 35.2715C19.8173 35.2715 18.6494 36.6743 18.6494 38.7183V38.7246C18.6494 40.8003 19.792 42.127 21.6899 42.127ZM21.6137 36.249C22.5786 36.249 23.2895 36.8521 23.3974 38.1343H19.7856C19.9062 36.9028 20.6552 36.249 21.6137 36.249ZM27.9804 42.127C29.4531 42.127 30.5449 41.3145 30.5449 40.1592V40.1528C30.5449 39.2134 30.0625 38.6865 28.7294 38.3628L27.6821 38.1089C26.9521 37.9312 26.6538 37.6201 26.6538 37.1694V37.1631C26.6538 36.5791 27.1489 36.1919 27.9487 36.1919C28.7675 36.1919 29.2563 36.6172 29.3452 37.2583L29.3515 37.3027H30.4052L30.3989 37.2202C30.3164 36.1157 29.3959 35.2715 27.9487 35.2715C26.5205 35.2715 25.5239 36.0776 25.5239 37.2139V37.2202C25.5239 38.1724 26.1269 38.75 27.371 39.0483L28.4184 39.3023C29.1674 39.4863 29.415 39.7529 29.415 40.229V40.2354C29.415 40.832 28.8818 41.2065 27.9868 41.2065C27.0854 41.2065 26.5966 40.8193 26.4633 40.1592L26.4506 40.0957H25.3462L25.3525 40.1528C25.4858 41.3335 26.4253 42.127 27.9804 42.127ZM31.7509 42H32.8554V38.147C32.8554 37.0234 33.5346 36.249 34.5566 36.249C35.5849 36.249 36.1943 36.9536 36.1943 38.147V42H37.2988V37.9565C37.2988 36.3569 36.3403 35.2715 34.9374 35.2715C33.9536 35.2715 33.2363 35.7095 32.8808 36.4522H32.8554V32.8403H31.7509V42ZM41.4374 42.127C43.2592 42.127 44.4907 40.8066 44.4907 38.6992V38.6865C44.4907 36.5791 43.2529 35.2715 41.4311 35.2715C39.6093 35.2715 38.3779 36.5855 38.3779 38.6865V38.6992C38.3779 40.8003 39.603 42.127 41.4374 42.127ZM41.4438 41.1494C40.2758 41.1494 39.5077 40.2544 39.5077 38.6992V38.6865C39.5077 37.1441 40.2822 36.249 41.4311 36.249C42.5991 36.249 43.3608 37.1377 43.3608 38.6865V38.6992C43.3608 40.248 42.6054 41.1494 41.4438 41.1494ZM45.665 42H46.7695V32.8403H45.665V42ZM50.7431 42.127C51.6889 42.127 52.4252 41.6509 52.8378 40.8828H52.8632V42H53.9677V32.8403H52.8632V36.5029H52.8378C52.4252 35.7412 51.6571 35.2715 50.724 35.2715C49.0673 35.2715 47.9374 36.6108 47.9374 38.6929V38.6992C47.9374 40.7813 49.0546 42.127 50.7431 42.127ZM50.9589 41.1494C49.7909 41.1494 49.0673 40.2163 49.0673 38.6992V38.6929C49.0673 37.1885 49.7909 36.249 50.9589 36.249C52.0697 36.249 52.8695 37.2202 52.8695 38.6929V38.6992C52.8695 40.1782 52.0761 41.1494 50.9589 41.1494Z" fill="white"/>
<path d="M27.5 0C20.0561 0 14 6.0561 14 13.5C14 20.9439 20.0561 27 27.5 27C34.9439 27 41 20.9439 41 13.5C41 6.0561 34.9439 0 27.5 0ZM26.15 12.15H16.7931C16.9089 11.2233 17.1449 10.3157 17.4952 9.45H26.15V12.15ZM26.15 17.55H17.4952C17.1449 16.6843 16.9089 15.7767 16.7931 14.85H26.15V17.55ZM26.15 2.79315V6.75H19.0827C20.8356 4.56375 23.37 3.1448 26.15 2.79315V2.79315ZM19.0827 20.25H26.15V24.2069C23.37 23.8552 20.8356 22.4363 19.0827 20.25V20.25ZM28.85 24.2069V2.79315C34.1677 3.4614 38.3 8.00145 38.3 13.5C38.3 18.9986 34.1677 23.5386 28.85 24.2069Z" fill="white"/>
</svg>
