<svg width="23" height="22" viewBox="0 0 23 22" fill="none" xmlns="http://www.w3.org/2000/svg">
<path d="M8.33133 4.76184H10.5618V14.9725C10.5618 15.1053 10.6705 15.2139 10.8033 15.2139H12.6142C12.747 15.2139 12.8556 15.1053 12.8556 14.9725V4.76184H15.0921C15.2944 4.76184 15.406 4.52943 15.2823 4.37248L11.9019 0.092644C11.8793 0.0637845 11.8504 0.0404445 11.8175 0.0243932C11.7846 0.00834183 11.7484 0 11.7117 0C11.6751 0 11.6389 0.00834183 11.606 0.0243932C11.573 0.0404445 11.5442 0.0637845 11.5216 0.092644L8.14118 4.36947C8.01743 4.52943 8.12911 4.76184 8.33133 4.76184ZM22.7584 14.067H20.9475C20.8147 14.067 20.706 14.1757 20.706 14.3085V18.9565H2.71743V14.3085C2.71743 14.1757 2.60878 14.067 2.47598 14.067H0.665042C0.53224 14.067 0.423584 14.1757 0.423584 14.3085V20.2846C0.423584 20.8188 0.85519 21.2504 1.38942 21.2504H22.0341C22.5683 21.2504 22.9999 20.8188 22.9999 20.2846V14.3085C22.9999 14.1757 22.8912 14.067 22.7584 14.067Z" fill="white"/>
</svg>
